<?xml version="1.0" encoding="UTF-8"?>
<svg xmlns="http://www.w3.org/2000/svg" xmlns:xlink="http://www.w3.org/1999/xlink" width="2835" height="2835" viewBox="591.72 468.81 1651.2 1897.73">
<path fill-rule="nonzero" fill="black" fill-opacity="0.1" d="M 2152.25 828.511719 C 2119.441406 816.910156 2082.101562 819.230469 2049.621094 830.609375 C 2032.488281 836.46875 2016.589844 844.640625 2001.890625 855.238281 C 1986.308594 866.519531 1973.160156 880.109375 1961.449219 895.238281 C 1937.589844 926.058594 1922.128906 962.519531 1911.738281 999.871094 C 1888.53125 1082.839844 1891.851562 1170.449219 1868.980469 1253.421875 C 1859.261719 1288.550781 1845.339844 1319.480469 1825.011719 1350.308594 C 1806.339844 1378.480469 1783.578125 1404 1756.839844 1426.648438 C 1744.140625 1437.589844 1730.769531 1447.539062 1716.628906 1456.480469 C 1702.039062 1465.871094 1686.910156 1474.160156 1671.21875 1481.558594 C 1662.609375 1485.539062 1657.078125 1487.859375 1648.46875 1491.171875 C 1640.179688 1494.378906 1631.890625 1497.140625 1623.378906 1499.789062 C 1606.808594 1504.761719 1590.019531 1508.628906 1572.890625 1511.171875 C 1571.898438 1511.390625 1570.789062 1511.511719 1569.691406 1511.609375 L 1567.589844 1511.949219 C 1565.941406 1512.160156 1564.28125 1512.390625 1562.621094 1512.609375 C 1558.308594 1513.050781 1553.890625 1513.488281 1549.46875 1513.820312 C 1543.730469 1514.148438 1537.980469 1514.488281 1532.128906 1514.601562 L 1598.640625 1139.949219 L 1640.058594 906.839844 C 1652.660156 835.691406 1670.890625 762.558594 1667.789062 689.96875 C 1665.039062 628.210938 1642.601562 569.648438 1594.550781 528.878906 C 1552.351562 492.871094 1497.878906 472.871094 1442.53125 469.328125 C 1318.789062 461.488281 1209.078125 543.359375 1143.460938 641.019531 C 1069.539062 751.058594 1043.140625 884.640625 1036.511719 1014.671875 C 1033.960938 1066.269531 1034.300781 1117.96875 1035.949219 1169.558594 C 1033.851562 1168.128906 1031.761719 1166.691406 1029.769531 1165.140625 C 1023.46875 1160.609375 1019.609375 1157.628906 1013.421875 1152.550781 C 1002.140625 1143.378906 991.320312 1133.660156 981.042969 1123.378906 C 970.660156 1113 960.9375 1102.171875 951.660156 1090.789062 C 943.152344 1080.410156 934.648438 1068.808594 926.582031 1056.539062 C 918.515625 1044.5 911.109375 1032.019531 904.375 1019.308594 C 900.839844 1012.679688 897.519531 1006.050781 894.433594 999.429688 C 892.988281 996.21875 891.554688 993.121094 890.117188 990.03125 C 888.242188 985.71875 887.90625 984.839844 886.140625 980.53125 C 875.09375 953.460938 866.699219 925.730469 861.175781 897.121094 C 858.523438 883.300781 856.535156 869.390625 855.429688 855.46875 C 854.210938 840.878906 853.769531 826.300781 854.105469 811.71875 C 854.875 775.480469 860.953125 739.570312 862.941406 703.441406 C 864.816406 670.738281 863.269531 637.160156 851.453125 606.21875 C 841.171875 579.480469 824.824219 554.960938 801.296875 537.941406 C 777.316406 520.589844 746.714844 514.96875 717.875 521.699219 C 688.378906 528.769531 662.085938 547.671875 643.636719 571.199219 C 622.976562 597.378906 611.484375 629.421875 605.078125 661.679688 C 598.339844 696.039062 596.019531 731.289062 593.921875 766.078125 C 589.503906 839.339844 590.824219 913.578125 606.515625 985.5 C 619.550781 1045.378906 643.417969 1103.828125 679.984375 1153.539062 C 716.335938 1203.148438 764.617188 1243.480469 822.839844 1265.238281 C 879.847656 1286.570312 945.800781 1289.878906 1003.359375 1268.558594 C 1015.851562 1264.03125 1027.78125 1258.390625 1039.269531 1251.648438 C 1042.359375 1316.398438 1045.890625 1381.019531 1049.328125 1445.660156 L 1073.738281 1921.71875 L 1079.820312 2040.820312 C 1081.800781 2078.710938 1082.910156 2116.722656 1086.449219 2154.507812 C 1092.640625 2219.023438 1110.199219 2286.414062 1163.230469 2328.953125 C 1185.550781 2346.851562 1211.621094 2358.121094 1240.351562 2360.222656 C 1242.769531 2360.550781 1244.988281 2359.886719 1246.980469 2358.449219 C 1272.050781 2370.605469 1300.230469 2368.289062 1325.191406 2356.6875 C 1352.921875 2343.753906 1373.261719 2320.007812 1385.738281 2292.605469 C 1399.660156 2262.113281 1405.289062 2229.074219 1411.148438 2196.269531 C 1418.109375 2157.265625 1425.070312 2118.15625 1431.921875 2079.152344 C 1459.761719 1922.710938 1487.488281 1766.378906 1515.230469 1609.941406 C 1517.871094 1595.359375 1520.410156 1580.660156 1523.070312 1566.078125 C 1524.171875 1566.960938 1525.378906 1567.628906 1526.820312 1568.070312 C 1615.101562 1595.128906 1704.910156 1622.539062 1797.949219 1625.738281 C 1875.28125 1628.390625 1956.589844 1612.808594 2021.78125 1569.730469 C 2055.25 1547.628906 2082.871094 1518.789062 2105.078125 1485.648438 C 2127.289062 1452.621094 2143.75 1416.039062 2157.558594 1378.921875 C 2172.699219 1338.269531 2185.070312 1296.621094 2196.230469 1254.859375 C 2208.160156 1210.550781 2218.320312 1165.808594 2226.71875 1120.738281 C 2234.121094 1081.179688 2241.410156 1041.078125 2242.738281 1000.75 C 2243.839844 965.511719 2240.199219 929.488281 2225.609375 897.011719 C 2211.46875 865.410156 2185.179688 840.328125 2152.25 828.511719 Z M 2115.800781 842.320312 C 2123.199219 842.761719 2130.488281 844.078125 2137.671875 846.070312 C 2141.539062 847.070312 2145.300781 848.398438 2149.058594 849.71875 C 2152.480469 851.160156 2155.898438 852.699219 2159.210938 854.46875 C 2162.640625 856.351562 2165.960938 858.339844 2169.160156 860.441406 C 2172.25 862.539062 2175.238281 864.738281 2177.890625 867.289062 C 2180.648438 869.710938 2183.078125 872.039062 2185.398438 874.46875 C 2139.769531 928.5 2122.648438 999.089844 2112.261719 1067.371094 C 2106.300781 1106.921875 2101.871094 1146.699219 2093.480469 1185.800781 C 2085.191406 1224.46875 2072.929688 1262.140625 2059.339844 1299.269531 C 2052.601562 1317.609375 2045.53125 1335.949219 2038.460938 1354.171875 C 2031.71875 1371.519531 2025.089844 1388.980469 2017.578125 1405.328125 C 2010.179688 1421.570312 2001.671875 1437.371094 1991.171875 1451.839844 C 1988.53125 1455.488281 1987.421875 1457.039062 1985.210938 1459.691406 C 1982.558594 1463 1979.789062 1466.210938 1976.921875 1469.300781 C 1971.511719 1475.269531 1965.761719 1481.011719 1959.800781 1486.429688 C 1954.390625 1491.171875 1948.859375 1495.699219 1943 1500.019531 C 1936.488281 1504.761719 1929.640625 1509.179688 1922.679688 1513.160156 C 1915.828125 1517.140625 1908.75 1520.78125 1901.570312 1524.101562 C 1899.921875 1524.761719 1898.371094 1525.539062 1896.710938 1526.199219 C 1896.5 1526.308594 1894.839844 1526.96875 1894.839844 1526.96875 C 1894.171875 1527.199219 1893.511719 1527.410156 1892.851562 1527.738281 C 1888.980469 1529.289062 1885 1530.730469 1880.921875 1532.050781 C 1864.121094 1537.46875 1845.78125 1540.890625 1828.878906 1543.101562 C 1809.878906 1545.640625 1790.761719 1547.851562 1771.539062 1549.949219 C 1734.75 1553.929688 1697.628906 1556.800781 1660.609375 1555.910156 C 1654.648438 1555.808594 1648.789062 1555.578125 1642.828125 1555.261719 C 1670.21875 1554.921875 1697.511719 1552.710938 1724.480469 1547.519531 C 1756.730469 1541.328125 1788.21875 1530.621094 1816.609375 1514.378906 C 1843.898438 1498.910156 1868.320312 1478.46875 1888.980469 1455.269531 C 1933.730469 1404.890625 1961.558594 1342.691406 1978.140625 1278.058594 C 1987.191406 1242.808594 1992.609375 1206.910156 1997.25 1170.890625 C 1999.570312 1153.210938 2002 1135.539062 2005.980469 1117.859375 C 2009.960938 1100.289062 2015.699219 1083.28125 2021.671875 1066.269531 C 2027.628906 1048.921875 2033.601562 1031.460938 2037.691406 1013.570312 C 2041.78125 995.78125 2044.089844 977.660156 2047.96875 959.871094 C 2054.808594 926.949219 2067.179688 896.121094 2085.191406 867.621094 C 2089.5 860.660156 2094.03125 854.03125 2099 847.519531 C 2100.109375 845.859375 2100.660156 844.078125 2100.441406 842.101562 C 2105.628906 841.878906 2110.71875 841.988281 2115.800781 842.320312 Z M 1722.710938 1477.699219 C 1781.699219 1440.910156 1831.75 1388.761719 1863.238281 1326.890625 C 1881.460938 1291.210938 1892.621094 1252.871094 1899.691406 1213.539062 C 1907.429688 1170.109375 1910.738281 1126.148438 1916.820312 1082.5 C 1922.230469 1044.171875 1929.96875 1005.71875 1944.109375 969.480469 C 1956.921875 936.671875 1976.480469 904.300781 2003.769531 880.550781 C 2006.859375 878 2009.628906 875.691406 2011.730469 874.140625 C 2015.371094 871.371094 2019.128906 868.949219 2022.988281 866.519531 C 2030.289062 862.101562 2037.800781 858.121094 2045.640625 854.691406 L 2047.191406 854.03125 L 2049.179688 853.261719 C 2051.160156 852.371094 2053.269531 851.710938 2055.371094 850.941406 C 2059.449219 849.5 2063.539062 848.28125 2067.738281 847.070312 C 2069.949219 846.519531 2072.148438 846.070312 2074.371094 845.53125 C 2057.019531 870.609375 2043.761719 897.78125 2034.589844 926.730469 C 2023.871094 960.859375 2021.441406 996.660156 2011.058594 1030.800781 C 2005.75 1047.921875 1999.460938 1064.71875 1993.941406 1081.839844 C 1988.300781 1099.078125 1984 1116.75 1981.121094 1134.769531 C 1975.148438 1170.449219 1972.058594 1205.691406 1964.769531 1241.269531 C 1951.511719 1306.121094 1929.199219 1368.871094 1888.871094 1422.230469 C 1880.03125 1433.71875 1870.421875 1444.671875 1860.140625 1454.820312 C 1849.761719 1465.210938 1838.488281 1474.601562 1826.558594 1483.109375 C 1800.261719 1501.558594 1772.640625 1513.820312 1741.929688 1522 C 1710.109375 1530.390625 1679.71875 1533.488281 1646.691406 1534.039062 C 1623.269531 1534.480469 1599.851562 1533.601562 1576.539062 1531.828125 C 1628.25 1524.101562 1678.289062 1505.199219 1722.710938 1477.699219 Z M 829.027344 607.109375 C 829.683594 608.429688 829.242188 607.550781 829.027344 607.109375 Z M 826.8125 602.128906 C 827.480469 603.679688 828.25 605.21875 828.914062 606.769531 L 829.027344 607.109375 C 829.46875 608.210938 829.910156 609.199219 830.351562 610.308594 C 832.777344 616.5 834.878906 622.789062 836.539062 629.199219 C 837.421875 632.398438 838.085938 635.71875 838.742188 639.03125 C 839.082031 640.46875 839.410156 642.019531 839.625 643.449219 C 839.738281 644.230469 839.851562 645.109375 840.074219 645.878906 C 840.074219 645.878906 840.289062 647.648438 840.289062 647.761719 C 841.511719 656.710938 842.167969 665.660156 842.28125 674.71875 C 843.058594 710.960938 837.421875 746.96875 834.4375 782.988281 C 832.011719 813.148438 832.226562 843.199219 836.089844 873.25 C 843.609375 931.808594 861.835938 986.828125 890.671875 1038.53125 C 918.957031 1088.921875 956.742188 1134.429688 1002.140625 1170.558594 C 1013.300781 1179.398438 1024.910156 1187.789062 1036.828125 1195.640625 C 1036.828125 1195.859375 1036.828125 1196.078125 1036.828125 1196.300781 C 1017.71875 1186.578125 998.945312 1175.96875 980.714844 1164.488281 C 970.660156 1158.070312 960.605469 1151.441406 950.882812 1144.480469 C 946.023438 1141.058594 941.164062 1137.519531 936.296875 1133.988281 C 931.441406 1130.339844 928.457031 1128.019531 923.375 1123.929688 C 904.703125 1109.238281 886.910156 1093.558594 869.898438 1076.871094 C 861.28125 1068.46875 852.773438 1059.75 844.710938 1050.800781 C 836.089844 1041.398438 829.242188 1033.230469 822.507812 1022.960938 C 819.300781 1018.101562 816.320312 1013.019531 813.664062 1007.929688 C 812.34375 1005.28125 811.011719 1002.628906 809.800781 999.980469 C 809.464844 999.308594 809.246094 998.648438 808.921875 997.988281 L 808.582031 997.210938 C 808.03125 995.890625 807.589844 994.671875 807.035156 993.351562 C 802.84375 982.300781 799.523438 970.921875 797.207031 959.320312 C 794.882812 948.269531 793.445312 937 792.894531 925.730469 C 792.121094 913.800781 792.121094 901.871094 792.566406 890.050781 C 794.554688 836.359375 805.824219 783.550781 807.699219 729.960938 C 808.695312 702.679688 808.03125 675.378906 807.589844 648.089844 C 807.371094 635.28125 807.035156 622.570312 807.261719 609.871094 C 807.371094 607.109375 807.476562 604.339844 807.699219 601.578125 C 807.699219 600.25 807.8125 598.929688 808.03125 597.5 C 808.03125 596.941406 808.367188 594.511719 808.253906 594.730469 C 809.023438 589.539062 810.242188 584.558594 812.007812 579.710938 C 812.230469 579.269531 812.34375 578.820312 812.558594 578.378906 L 812.558594 578.269531 C 816.207031 583.351562 819.519531 588.539062 822.613281 594.070312 C 824.046875 596.71875 825.378906 599.371094 826.703125 602.128906 Z M 772.785156 545.898438 C 772.34375 545.679688 771.464844 545.230469 772.785156 545.898438 Z M 704.953125 548.441406 C 705.617188 548.109375 706.28125 547.769531 706.941406 547.558594 C 706.722656 547.671875 708.046875 547.121094 708.601562 546.78125 L 710.363281 546.121094 C 711.359375 545.78125 712.351562 545.460938 713.347656 545.019531 C 716.554688 543.910156 719.761719 543.03125 723.070312 542.148438 C 724.617188 541.808594 726.164062 541.480469 727.714844 541.148438 C 728.59375 541.039062 729.476562 540.808594 730.367188 540.699219 C 730.808594 540.601562 731.359375 540.601562 731.800781 540.488281 L 732.242188 540.371094 C 746.496094 538.941406 757.105469 540.039062 770.246094 544.898438 C 771.132812 545.128906 772.015625 545.460938 772.898438 545.898438 L 773.121094 546.011719 C 774.558594 546.671875 775.992188 547.328125 777.429688 548 C 780.296875 549.429688 783.0625 551.089844 785.820312 552.859375 C 787.152344 553.628906 788.476562 554.628906 789.808594 555.511719 C 790.351562 555.839844 790.90625 556.289062 791.347656 556.621094 C 791.570312 556.828125 791.796875 556.949219 791.898438 556.949219 L 792.339844 557.390625 C 794.113281 558.820312 795.875 560.261719 797.535156 561.808594 C 786.710938 579.589844 785.820312 601.03125 785.933594 621.800781 C 786.160156 649.640625 787.039062 677.589844 786.929688 705.550781 C 786.710938 733.160156 785.050781 760.558594 781.742188 787.960938 C 778.535156 815.25 774.558594 842.539062 772.457031 869.941406 C 768.59375 919.539062 771.574219 971.25 794.335938 1016.550781 C 805.824219 1039.421875 822.949219 1058.96875 840.621094 1077.429688 C 857.527344 1094.878906 875.320312 1111.449219 893.984375 1127.140625 C 927.574219 1155.308594 963.476562 1180.058594 1001.820312 1201.488281 L 956.40625 1189.671875 C 930.671875 1183.050781 904.925781 1176.421875 879.847656 1167.46875 C 856.09375 1158.960938 832.449219 1147.910156 811.238281 1132.21875 C 806.921875 1129.019531 801.398438 1124.488281 796.652344 1120.179688 C 791.683594 1115.761719 786.929688 1111.011719 782.285156 1106.261719 C 773.453125 1096.980469 765.160156 1087.261719 757.320312 1077.199219 C 740.972656 1056.101562 725.941406 1033.78125 714.675781 1009.578125 C 709.265625 997.988281 704.839844 985.941406 701.527344 973.460938 C 697.992188 960.089844 695.78125 946.390625 694.785156 932.589844 C 692.582031 903.410156 694.234375 874.140625 695.453125 844.96875 L 699.316406 754.589844 C 701.753906 695.488281 706.5 635.71875 698.65625 576.941406 C 697.664062 569.210938 696.445312 561.46875 695.011719 553.75 L 695.453125 553.410156 C 698.546875 551.648438 701.640625 549.988281 704.953125 548.441406 Z M 994.632812 1249.449219 C 980.824219 1254.191406 966.796875 1257.730469 952.316406 1259.71875 C 951.988281 1259.828125 950.882812 1259.941406 950.664062 1259.941406 L 949.117188 1260.160156 C 947.242188 1260.378906 945.359375 1260.601562 943.59375 1260.710938 C 939.835938 1261.148438 936.195312 1261.371094 932.433594 1261.589844 C 925.035156 1261.929688 917.625 1261.929688 910.226562 1261.699219 C 895.753906 1261.148438 881.5 1259.390625 867.46875 1256.289062 C 837.976562 1250 812.117188 1239.941406 786.601562 1224.699219 C 774.335938 1217.300781 762.730469 1209.121094 751.796875 1199.949219 C 740.859375 1190.660156 730.472656 1180.828125 720.867188 1170.230469 C 711.140625 1159.839844 702.296875 1148.800781 694.128906 1137.078125 C 685.726562 1125.148438 677.996094 1112.769531 671.039062 1099.960938 C 656.671875 1073.78125 646.289062 1048.808594 637.445312 1020.089844 C 617.011719 953.578125 611.816406 884.191406 613.25 814.921875 C 613.914062 779.460938 616.128906 743.878906 619.777344 708.640625 C 621.316406 692.730469 623.199219 678.480469 626.621094 662.558594 C 629.828125 647.210938 634.6875 630.75 640.652344 617.269531 C 643.859375 609.980469 647.613281 602.800781 651.8125 596.050781 C 653.578125 593.300781 655.460938 590.53125 657.339844 587.878906 C 659.324219 585.230469 661.3125 582.691406 663.527344 580.148438 C 667.390625 575.839844 671.480469 571.640625 675.785156 567.78125 C 680.097656 593.738281 681.421875 620.359375 681.421875 647.210938 C 681.421875 677.261719 679.875 707.421875 678.65625 737.46875 C 677.332031 767.859375 676.121094 798.238281 674.789062 828.621094 C 673.578125 858.121094 671.59375 887.828125 672.691406 917.449219 C 673.683594 946.621094 678.109375 975.558594 688.710938 1002.851562 C 698.875 1028.589844 712.90625 1052.449219 729.035156 1074.769531 C 745.164062 1096.980469 762.628906 1118.519531 783.28125 1136.640625 C 803.726562 1154.648438 827.039062 1168.570312 852.222656 1179.289062 C 877.523438 1190.011719 903.933594 1197.730469 930.558594 1204.808594 C 959.5 1212.539062 988.667969 1219.941406 1017.71875 1227.449219 L 1032.308594 1231.328125 C 1026.238281 1235.078125 1019.929688 1238.5 1013.53125 1241.601562 C 1007.339844 1244.578125 1001.050781 1247.230469 994.632812 1249.449219 Z M 1105.449219 2124.011719 C 1103.230469 2086.335938 1101.578125 2048.664062 1099.589844 2010.988281 C 1091.75 1858.527344 1083.898438 1706.058594 1076.171875 1553.480469 L 1064.460938 1326.558594 C 1061.03125 1259.160156 1057.050781 1191.550781 1056.171875 1124.050781 C 1054.410156 997.101562 1062.800781 866.839844 1111.078125 747.75 C 1136.710938 684.558594 1175.609375 622.898438 1226.761719 575.511719 C 1186.539062 661.238281 1169.96875 756.140625 1164.890625 850.390625 C 1158.589844 968.710938 1170.738281 1086.808594 1172.621094 1205.140625 C 1173.621094 1267.121094 1171.851562 1329.210938 1163.121094 1390.640625 C 1154.609375 1450.960938 1143.121094 1510.398438 1142.679688 1571.488281 C 1141.691406 1692.140625 1169.96875 1810.25 1181.570312 1929.894531 C 1191.621094 2033.855469 1189.960938 2144.894531 1144.339844 2241.230469 C 1141.460938 2247.53125 1138.261719 2253.714844 1134.941406 2259.789062 C 1129.308594 2249.078125 1124.78125 2237.917969 1121.140625 2226.316406 C 1110.96875 2193.0625 1107.550781 2158.484375 1105.449219 2124.011719 Z M 1147.429688 2280.675781 C 1199.910156 2190.519531 1211.621094 2083.90625 1206.648438 1981.382812 C 1200.898438 1863.496094 1172.839844 1748.050781 1165.550781 1630.269531 C 1161.789062 1568.289062 1166.210938 1507.75 1175.820312 1446.539062 C 1185.320312 1386.109375 1192.621094 1326 1193.828125 1264.691406 C 1196.269531 1144.039062 1182.890625 1023.839844 1184.441406 903.191406 C 1185.761719 795.359375 1198.800781 684.328125 1245.199219 585.558594 C 1250.949219 573.398438 1257.140625 561.46875 1263.878906 549.761719 C 1264.871094 548 1265.308594 546.230469 1265.308594 544.238281 C 1293.039062 524.910156 1323.539062 509.660156 1356.789062 500.050781 C 1392.699219 489.660156 1431.921875 487.789062 1469.589844 494.191406 C 1410.699219 591.191406 1371.480469 699.800781 1355.789062 811.929688 C 1347.289062 872.371094 1347.398438 933.238281 1342.101562 993.898438 C 1336.679688 1055.988281 1321.878906 1116.859375 1311.601562 1178.289062 C 1290.609375 1302.03125 1278.570312 1426.550781 1275.589844 1551.941406 C 1274.039062 1614.359375 1275.808594 1676.570312 1277.140625 1738.878906 C 1278.570312 1802.289062 1275.808594 1864.378906 1265.199219 1927.023438 C 1260.121094 1957.1875 1254.488281 1987.347656 1250.730469 2017.726562 C 1246.859375 2048.550781 1245.199219 2079.59375 1244.648438 2110.757812 C 1243.550781 2172.515625 1244.878906 2234.382812 1245.320312 2296.140625 C 1245.429688 2310.394531 1245.539062 2324.539062 1245.640625 2338.671875 C 1244.878906 2339.007812 1244.320312 2339.449219 1243.660156 2339.890625 C 1242.660156 2339.449219 1241.558594 2339.226562 1240.351562 2339.226562 C 1200.800781 2336.242188 1169.191406 2312.046875 1147.429688 2280.675781 Z M 1266.859375 2343.539062 C 1266.859375 2343.425781 1266.859375 2343.203125 1266.859375 2343.097656 C 1266.421875 2281.230469 1265.859375 2219.359375 1265.648438 2157.378906 C 1265.421875 2095.394531 1268.410156 2034.296875 1278.789062 1972.980469 C 1289.070312 1912 1298.351562 1852.007812 1298.898438 1790.03125 C 1299.339844 1728.160156 1295.808594 1666.289062 1296.03125 1604.421875 C 1296.46875 1479.691406 1305.96875 1355.621094 1324.421875 1232.210938 C 1333.589844 1170.671875 1347.070312 1110.019531 1356.679688 1048.589844 C 1366.179688 987.601562 1366.300781 926.171875 1371.160156 864.738281 C 1380.328125 750.621094 1412.140625 642.898438 1466.71875 541.808594 C 1473.460938 529.328125 1480.640625 516.949219 1488.050781 504.691406 C 1489.261719 502.808594 1489.808594 500.710938 1489.589844 498.390625 C 1532.128906 509.109375 1571.351562 530.871094 1599.738281 563.351562 C 1549.25 664.78125 1513.230469 772.5 1486.71875 882.308594 C 1459.320312 995.449219 1440.980469 1110.671875 1425.730469 1225.910156 C 1409.601562 1347.878906 1398.449219 1470.511719 1395.460938 1593.480469 C 1393.921875 1654.800781 1395.570312 1716 1396.671875 1777.320312 C 1397.230469 1807.378906 1397 1837.535156 1393.25 1867.359375 C 1389.601562 1896.863281 1382.320312 1925.808594 1373.910156 1954.308594 C 1357.339844 2011.320312 1337.679688 2066.894531 1324.859375 2124.890625 C 1312.039062 2183.449219 1303.648438 2242.777344 1296.03125 2302.105469 C 1294.148438 2316.472656 1292.378906 2330.832031 1290.5 2345.191406 C 1282.550781 2346.191406 1274.601562 2345.640625 1266.859375 2343.539062 Z M 1396.789062 2155.941406 C 1390.820312 2189.640625 1386.289062 2224.21875 1376.351562 2257.144531 C 1367.949219 2285.421875 1353.921875 2313.820312 1328.511719 2330.605469 C 1323.429688 2333.925781 1318.121094 2336.796875 1312.601562 2339.121094 C 1319.671875 2282.328125 1326.851562 2225.4375 1337.460938 2169.195312 C 1348.511719 2110.972656 1364.75 2054.742188 1382.640625 1998.394531 C 1400.539062 1941.9375 1415.570312 1885.375 1417.660156 1825.941406 C 1419.878906 1765.5 1415.460938 1704.839844 1415.898438 1644.421875 C 1416.671875 1522.550781 1425.730469 1400.921875 1440.101562 1279.929688 C 1454.011719 1163.601562 1471.578125 1047.148438 1496.878906 932.46875 C 1521.191406 822.101562 1553.558594 712.828125 1600.839844 609.871094 C 1605.160156 600.480469 1609.570312 591.191406 1614.101562 582.019531 C 1619.851562 590.640625 1624.929688 599.808594 1629.019531 609.308594 C 1656.308594 671.179688 1647.25 742.109375 1636.199219 806.519531 C 1623.601562 880.988281 1609.898438 955.339844 1596.648438 1029.691406 C 1570.019531 1180.171875 1543.289062 1330.761719 1516.550781 1481.339844 C 1489.921875 1631.039062 1463.410156 1780.851562 1436.78125 1930.664062 C 1423.519531 2005.683594 1410.148438 2080.8125 1396.789062 2155.941406 Z M 2221.519531 999.640625 C 2221.308594 1008.589844 2220.75 1017.550781 2219.871094 1026.378906 C 2219.539062 1030.46875 2219.089844 1034.558594 2218.648438 1038.53125 C 2218.441406 1040.410156 2218.210938 1042.179688 2218 1044.058594 L 2217.550781 1047.371094 C 2217.441406 1047.710938 2217.441406 1048.039062 2217.441406 1048.261719 C 2217.328125 1048.808594 2217.21875 1049.359375 2217.21875 1049.910156 C 2204.621094 1139.300781 2183.851562 1227.789062 2157.121094 1313.859375 C 2134.578125 1386.550781 2107.070312 1461.449219 2053.039062 1516.808594 C 2000.460938 1570.5 1925.878906 1597.128906 1852.078125 1603.308594 C 1775.070312 1609.828125 1698.730469 1595.128906 1624.710938 1574.921875 C 1664.480469 1578.671875 1704.910156 1577.128906 1744.46875 1573.699219 C 1763.359375 1572.039062 1782.261719 1569.839844 1801.148438 1567.628906 C 1820.921875 1565.308594 1840.921875 1563.210938 1860.589844 1559.230469 C 1893.949219 1552.378906 1924.441406 1539.128906 1952.058594 1519.351562 C 1979.351562 1500.019531 2002.671875 1475.480469 2019.898438 1446.871094 C 2039.898438 1413.730469 2052.710938 1376.28125 2066.628906 1340.261719 C 2081 1303.019531 2094.800781 1265.351562 2105.308594 1226.800781 C 2115.898438 1188.230469 2122.089844 1148.679688 2127.730469 1109.019531 C 2133.03125 1071.011719 2138.21875 1032.789062 2148.5 995.671875 C 2157.890625 961.75 2170.371094 930.699219 2190.921875 901.761719 C 2193.578125 898 2196.121094 894.800781 2198.769531 891.480469 C 2201.421875 895.800781 2203.851562 900.320312 2206.058594 904.851562 C 2207.488281 907.839844 2208.710938 910.820312 2209.820312 913.800781 C 2211.371094 917.78125 2212.691406 921.761719 2213.800781 925.730469 C 2216.109375 933.800781 2217.878906 941.96875 2219.210938 950.261719 C 2219.210938 950.921875 2219.320312 951.589844 2219.429688 952.238281 C 2219.429688 952.359375 2219.761719 954.351562 2219.761719 954.460938 C 2219.980469 956.558594 2220.199219 958.761719 2220.429688 960.980469 C 2220.871094 965.289062 2221.191406 969.710938 2221.421875 974.121094 C 2221.75 982.628906 2221.75 991.140625 2221.519531 999.640625 "/>
</svg>
