<?xml version="1.0" encoding="UTF-8"?>
<svg xmlns="http://www.w3.org/2000/svg" xmlns:xlink="http://www.w3.org/1999/xlink" width="2835" height="2835" viewBox="887.7 466.92 1059.24 1901.52">
<path fill-rule="nonzero" fill="black" fill-opacity="0.1" d="M 1826.839844 1006.640625 C 1811.179688 1003.140625 1795.441406 1002.890625 1779.691406 1005.808594 C 1763.871094 1008.730469 1749.289062 1014.550781 1735.960938 1023.46875 C 1709.140625 1041.121094 1688.910156 1067.609375 1676.160156 1096.769531 C 1660.839844 1131.921875 1654.75 1169.488281 1649.839844 1207.21875 C 1639.339844 1286.929688 1629.429688 1366.640625 1619.179688 1446.359375 C 1616.601562 1466.601562 1614.019531 1486.839844 1611.441406 1507.078125 C 1609.109375 1525.320312 1607.609375 1539.230469 1604.359375 1557.058594 C 1602.859375 1565.300781 1601.109375 1573.46875 1598.949219 1581.539062 C 1597.859375 1585.378906 1596.699219 1589.121094 1595.449219 1592.871094 C 1594.78125 1594.789062 1594.191406 1596.621094 1593.449219 1598.460938 C 1593.109375 1599.371094 1592.78125 1600.289062 1592.359375 1601.199219 C 1592.28125 1601.539062 1591.371094 1603.789062 1591.371094 1603.789062 C 1588.109375 1611.199219 1584.199219 1618.199219 1579.699219 1624.859375 C 1578.621094 1626.441406 1577.539062 1627.941406 1576.449219 1629.441406 C 1576.449219 1629.441406 1574.539062 1631.769531 1574.210938 1632.109375 C 1571.960938 1634.769531 1569.539062 1637.441406 1566.960938 1639.851562 C 1564.628906 1642.179688 1562.210938 1644.351562 1559.628906 1646.519531 C 1558.960938 1647.019531 1558.378906 1647.511719 1557.710938 1648.011719 L 1557.378906 1648.351562 C 1555.800781 1649.429688 1554.128906 1650.601562 1552.550781 1651.679688 C 1546.878906 1655.511719 1540.890625 1658.761719 1534.71875 1661.589844 C 1533.96875 1661.921875 1533.21875 1662.261719 1532.46875 1662.589844 L 1532.308594 1662.671875 L 1532.058594 1662.761719 C 1530.558594 1663.421875 1529.058594 1664.011719 1527.480469 1664.589844 C 1524.058594 1665.839844 1520.648438 1666.921875 1517.148438 1668 C 1510.480469 1669.921875 1503.738281 1671.421875 1496.988281 1672.589844 L 1494.988281 1672.921875 C 1491.25 1672.921875 1487.5 1673.089844 1483.738281 1673.421875 C 1478.671875 1673.839844 1473.578125 1674.5 1468.578125 1675.5 C 1464.339844 1675.671875 1460.089844 1675.839844 1455.761719 1675.839844 C 1440.769531 1675.839844 1425.691406 1675 1410.699219 1673.421875 C 1407.371094 1673.089844 1403.949219 1672.75 1400.621094 1672.339844 L 1392.621094 1671.339844 L 1390.789062 1671.171875 L 1389.371094 1670.921875 L 1386.789062 1670.589844 L 1381.539062 1669.839844 C 1380.210938 1669.589844 1378.789062 1669.421875 1377.460938 1669.171875 C 1385.460938 1618.78125 1393.871094 1568.46875 1402.039062 1518.078125 C 1422.191406 1393.128906 1439.429688 1267.519531 1442.679688 1140.828125 C 1445.851562 1017.640625 1435.941406 892.699219 1401.039062 774 C 1383.789062 715.609375 1360.390625 658.800781 1330.570312 605.660156 C 1300.660156 552.511719 1263.101562 503.289062 1203.039062 483.050781 C 1173.480469 473.050781 1141.820312 470.058594 1110.75 468.390625 C 1079.511719 466.71875 1047.78125 465.390625 1016.800781 470.71875 C 988.308594 475.628906 961.320312 487.800781 940.828125 508.289062 C 922.671875 526.28125 910.339844 549.179688 902.179688 573.171875 C 882.6875 630.148438 886.273438 693.199219 893.351562 752.011719 C 901.933594 822.558594 918.339844 891.859375 928.667969 962.238281 C 939.160156 1033.878906 944.074219 1106.261719 947.660156 1178.558594 C 951.238281 1250.78125 955.238281 1323.171875 954.824219 1395.460938 C 954.40625 1468.769531 944.910156 1540.648438 934.832031 1613.199219 C 924.921875 1683.828125 918.925781 1754.390625 920.757812 1825.851562 C 924.417969 1968.867188 952.40625 2109.96875 984.640625 2248.90625 C 992.21875 2281.226562 999.96875 2313.460938 1007.71875 2345.699219 C 995.386719 2348.109375 996.136719 2368.515625 1010.210938 2368.4375 L 1359.390625 2367.269531 C 1367.050781 2367.269531 1372.378906 2359.9375 1370.550781 2352.691406 C 1336.148438 2217.089844 1332.648438 2076.484375 1343.480469 1937.628906 C 1348.058594 1878.242188 1355.21875 1819.191406 1363.550781 1760.300781 C 1364.71875 1760.628906 1365.800781 1760.800781 1366.96875 1760.800781 L 1611.359375 1761.050781 C 1630.679688 1761.050781 1650.25 1761.960938 1669.5 1760.539062 C 1678.910156 1759.878906 1688.398438 1758.378906 1697.238281 1754.800781 C 1706.230469 1751.128906 1714.230469 1745.890625 1721.21875 1739.140625 C 1733.710938 1727.398438 1743.628906 1712.480469 1752.960938 1698.160156 C 1762.289062 1683.660156 1770.859375 1668.671875 1778.53125 1653.179688 C 1809.679688 1590.878906 1829.089844 1523.660156 1853.5 1458.679688 C 1866.320312 1424.621094 1881.230469 1392.550781 1896.46875 1359.148438 C 1912.128906 1324.738281 1927.460938 1289.761719 1936.960938 1253.03125 C 1954.199219 1186.140625 1952.53125 1108.101562 1904.46875 1053.699219 C 1884.398438 1030.960938 1856.738281 1013.21875 1826.839844 1006.640625 Z M 1717.558594 1071.609375 C 1717.800781 1071.359375 1717.730469 1071.441406 1717.558594 1071.609375 Z M 1605.519531 1627.019531 C 1622.101562 1597.199219 1627.261719 1563.140625 1631.601562 1529.820312 C 1641.921875 1451.101562 1651.761719 1372.390625 1661.828125 1293.679688 C 1666.75 1255.441406 1670.828125 1216.878906 1676.988281 1179.890625 C 1679.910156 1161.910156 1683.738281 1144.078125 1689.320312 1126.75 C 1694.398438 1111.179688 1700.398438 1097.519531 1709.398438 1083.359375 C 1711.230469 1080.441406 1713.21875 1077.519531 1715.308594 1074.699219 C 1715.890625 1073.949219 1716.390625 1073.199219 1716.980469 1072.449219 L 1717.308594 1072.03125 C 1718.640625 1070.28125 1719.96875 1068.621094 1721.390625 1067.03125 C 1726.390625 1061.109375 1731.878906 1055.699219 1737.800781 1050.710938 C 1738.800781 1049.789062 1739.878906 1048.871094 1740.960938 1048.039062 C 1743.050781 1101.101562 1741.789062 1154.160156 1737.300781 1207.050781 C 1736.128906 1220.378906 1734.800781 1233.699219 1733.21875 1246.949219 C 1732.46875 1253.609375 1731.628906 1260.269531 1730.800781 1266.859375 L 1730.550781 1268.601562 C 1730.550781 1268.859375 1730.378906 1269.941406 1730.300781 1270.269531 C 1730.140625 1271.851562 1729.890625 1273.351562 1729.71875 1274.941406 C 1729.21875 1278.441406 1728.640625 1281.929688 1728.128906 1285.429688 C 1724.140625 1312.089844 1719.390625 1338.570312 1713.71875 1364.980469 C 1702.570312 1417.539062 1688.070312 1469.261719 1670.488281 1520.070312 C 1661.578125 1545.558594 1652 1570.71875 1641.589844 1595.621094 C 1641.011719 1596.960938 1640.421875 1598.289062 1639.839844 1599.621094 L 1639.511719 1600.449219 C 1639.179688 1601.199219 1638.851562 1601.960938 1638.589844 1602.621094 C 1637.179688 1605.949219 1635.761719 1609.199219 1634.339844 1612.359375 C 1631.851562 1617.941406 1629.429688 1623.53125 1626.761719 1629.019531 C 1624.269531 1634.269531 1621.601562 1639.441406 1618.601562 1644.351562 C 1617.191406 1646.851562 1615.601562 1649.269531 1613.941406 1651.601562 C 1613.519531 1652.089844 1613.101562 1652.679688 1612.769531 1653.179688 C 1612.609375 1653.351562 1612.269531 1653.851562 1612.019531 1654.089844 L 1611.441406 1654.839844 C 1610.941406 1655.429688 1610.359375 1656.101562 1609.859375 1656.679688 C 1607.941406 1658.851562 1605.941406 1660.839844 1603.859375 1662.761719 C 1603.359375 1663.171875 1602.859375 1663.589844 1602.359375 1664.011719 L 1601.769531 1664.511719 C 1601.441406 1664.761719 1600.28125 1665.679688 1600.359375 1665.589844 C 1599.609375 1666.089844 1598.949219 1666.589844 1598.28125 1667.011719 C 1596.03125 1668.421875 1593.699219 1669.761719 1591.371094 1670.921875 C 1590.699219 1671.171875 1590.03125 1671.5 1589.449219 1671.75 L 1589.199219 1671.839844 C 1587.871094 1672.339844 1586.449219 1672.839844 1585.121094 1673.261719 C 1582.539062 1674.078125 1579.871094 1674.761719 1577.199219 1675.25 C 1575.949219 1675.5 1574.621094 1675.75 1573.371094 1675.921875 L 1572.949219 1676 C 1572.289062 1676.078125 1571.710938 1676.171875 1571.121094 1676.25 C 1565.789062 1676.75 1560.550781 1676.921875 1555.210938 1676.75 C 1576.121094 1665.011719 1593.609375 1648.351562 1605.519531 1627.019531 Z M 1572.949219 1676 C 1572.371094 1676 1571.789062 1676.078125 1572.949219 1676 Z M 1453.589844 1698.820312 C 1457.511719 1698.820312 1461.421875 1698.738281 1465.421875 1698.660156 C 1467.171875 1698.988281 1469 1698.988281 1470.75 1698.488281 L 1471.421875 1698.410156 C 1479.828125 1697.988281 1488.25 1697.160156 1496.660156 1695.910156 C 1499.160156 1695.910156 1501.648438 1696 1504.160156 1696.160156 C 1516.148438 1696.660156 1528.058594 1697.988281 1539.96875 1698.910156 C 1563.960938 1700.738281 1589.609375 1700.160156 1610.359375 1686.578125 C 1631.601562 1672.589844 1642.929688 1649.679688 1652.839844 1627.191406 C 1664.25 1601.449219 1674.828125 1575.378906 1684.570312 1548.980469 C 1703.480469 1497.75 1719.058594 1445.519531 1731.300781 1392.378906 C 1743.710938 1338.570312 1752.710938 1284.261719 1758.289062 1229.371094 C 1763.871094 1174.890625 1766.03125 1120.339844 1764.699219 1065.621094 C 1764.53125 1058.871094 1764.289062 1052.199219 1764.03125 1045.539062 C 1763.871094 1041.789062 1762.371094 1038.789062 1759.460938 1036.378906 C 1760.871094 1035.710938 1762.371094 1035.039062 1763.78125 1034.378906 L 1765.539062 1033.550781 L 1767.039062 1032.960938 C 1769.121094 1032.128906 1771.199219 1031.46875 1773.28125 1030.789062 C 1776.53125 1029.800781 1779.859375 1028.878906 1783.28125 1028.210938 C 1784.941406 1027.878906 1786.691406 1027.550781 1788.441406 1027.300781 L 1789.03125 1027.300781 C 1790.109375 1027.128906 1791.109375 1027.050781 1792.191406 1026.96875 C 1795.601562 1026.710938 1799.101562 1026.550781 1802.601562 1026.628906 C 1804.351562 1026.710938 1806.101562 1026.800781 1807.851562 1026.878906 C 1808.679688 1026.96875 1809.519531 1027.050781 1810.429688 1027.128906 C 1810.761719 1027.128906 1812.761719 1027.378906 1812.929688 1027.378906 C 1819.511719 1028.378906 1826.011719 1029.878906 1832.339844 1032.050781 C 1834 1032.550781 1835.671875 1033.128906 1837.25 1033.710938 C 1838.25 1034.128906 1839.25 1034.550781 1840.25 1034.878906 C 1840.589844 1035.039062 1842.25 1035.789062 1840.421875 1034.960938 C 1843.921875 1036.539062 1847.421875 1038.210938 1850.828125 1040.039062 C 1852.828125 1041.121094 1854.828125 1042.289062 1856.738281 1043.460938 C 1845.5 1106.761719 1832.339844 1169.648438 1817.011719 1232.121094 C 1801.191406 1297.089844 1783.109375 1361.558594 1762.871094 1425.449219 C 1752.789062 1457.269531 1742.128906 1488.921875 1731.050781 1520.410156 C 1720.308594 1550.730469 1709.480469 1581.050781 1697.238281 1610.78125 C 1694.988281 1616.199219 1692.238281 1622.441406 1688.980469 1629.191406 C 1685.988281 1635.609375 1682.660156 1641.929688 1679.160156 1648.101562 C 1675.660156 1654.179688 1671.828125 1660.089844 1667.671875 1665.839844 C 1667.078125 1666.589844 1666.5 1667.339844 1666 1668.089844 C 1665.75 1668.339844 1665.660156 1668.421875 1665.660156 1668.511719 L 1665.328125 1668.921875 C 1664.410156 1670.089844 1663.421875 1671.261719 1662.410156 1672.421875 C 1660 1675.339844 1657.421875 1678.171875 1654.75 1680.839844 C 1652.421875 1683.328125 1649.921875 1685.671875 1647.339844 1687.910156 C 1645.921875 1689.078125 1644.511719 1690.328125 1643.011719 1691.488281 L 1641.761719 1692.410156 C 1641.589844 1692.578125 1640.089844 1693.660156 1640.089844 1693.738281 C 1634.429688 1697.828125 1628.519531 1701.488281 1622.269531 1704.738281 C 1619.351562 1706.320312 1616.351562 1707.738281 1613.359375 1709.070312 C 1612.851562 1709.320312 1610.609375 1710.320312 1610.519531 1710.320312 C 1608.769531 1710.988281 1607.109375 1711.738281 1605.359375 1712.320312 C 1598.859375 1714.730469 1592.28125 1716.820312 1585.621094 1718.480469 C 1578.699219 1720.308594 1571.710938 1721.808594 1564.710938 1722.980469 C 1563.039062 1723.230469 1561.289062 1723.480469 1559.628906 1723.730469 C 1558.800781 1723.898438 1557.960938 1723.980469 1557.050781 1724.140625 L 1556.550781 1724.140625 C 1552.800781 1724.648438 1549.050781 1725.058594 1545.300781 1725.398438 C 1530.308594 1726.558594 1515.308594 1726.980469 1500.238281 1726.648438 C 1465.511719 1725.980469 1430.769531 1722.808594 1395.949219 1724.070312 C 1387.378906 1724.398438 1378.960938 1724.980469 1370.460938 1725.898438 C 1369.800781 1725.980469 1369.210938 1726.058594 1368.628906 1726.230469 C 1370.300781 1714.730469 1372.050781 1703.238281 1373.878906 1691.75 C 1400.199219 1695.738281 1426.851562 1698.738281 1453.589844 1698.820312 Z M 1360.46875 725.441406 C 1383.710938 788.070312 1398.949219 853.050781 1408.199219 918.929688 C 1407.371094 919.519531 1406.53125 920.179688 1405.871094 920.929688 C 1378.210938 950.828125 1372.21875 990.898438 1372.21875 1030.050781 C 1372.21875 1049.789062 1373.550781 1069.449219 1374.050781 1089.109375 C 1374.628906 1112.011719 1373.460938 1134.75 1370.550781 1157.488281 C 1358.390625 1250.609375 1321.148438 1338.238281 1302.488281 1430.03125 C 1282.839844 1527.160156 1287.671875 1626.769531 1272.339844 1724.308594 C 1264.851562 1772.371094 1249.101562 1818.351562 1239.78125 1865.996094 C 1235.109375 1889.824219 1232.28125 1914.140625 1233.699219 1938.378906 C 1235.199219 1963.289062 1240.769531 1987.773438 1246.351562 2012.011719 C 1269.179688 2109.636719 1277.839844 2208.921875 1283.589844 2308.882812 C 1284.25 2320.703125 1285 2332.617188 1285.589844 2344.53125 L 1246.691406 2344.609375 C 1251.609375 2232.078125 1239.03125 2119.882812 1230.441406 2007.769531 C 1226.199219 1951.542969 1222.949219 1895.148438 1223.609375 1838.761719 C 1224.199219 1782.699219 1229.53125 1726.890625 1236.691406 1671.339844 C 1251.019531 1560.558594 1271.679688 1449.941406 1269.261719 1337.820312 C 1267.929688 1280.429688 1262.101562 1223.210938 1264.769531 1165.648438 C 1267.351562 1108.429688 1275.011719 1051.460938 1281.421875 994.558594 L 1321.488281 635.980469 C 1336.570312 665.050781 1349.390625 695.449219 1360.46875 725.441406 Z M 1120.5 491.960938 C 1151.488281 493.960938 1183.46875 498.039062 1211.871094 511.121094 C 1238.699219 523.359375 1260.519531 543.519531 1278.261719 566.761719 C 1287.171875 578.589844 1295.5 590.828125 1303.171875 603.488281 C 1302.160156 605.078125 1301.578125 606.738281 1301.410156 608.578125 C 1288.589844 723.441406 1275.679688 838.300781 1262.851562 953.171875 C 1256.519531 1010.300781 1249.191406 1067.449219 1244.269531 1124.671875 C 1239.441406 1182.140625 1241.609375 1238.949219 1244.519531 1296.429688 C 1247.269531 1352.738281 1246.019531 1408.960938 1240.53125 1465.101562 C 1235.109375 1520.910156 1226.609375 1576.210938 1218.871094 1631.691406 C 1211.289062 1686.921875 1204.210938 1742.390625 1201.621094 1798.109375 C 1198.960938 1854.503906 1200.878906 1910.894531 1204.460938 1967.199219 C 1212.539062 2092.894531 1229.109375 2218.503906 1223.609375 2344.695312 L 1169.390625 2344.863281 C 1149.398438 2224.585938 1135.410156 2103.472656 1127.328125 1981.609375 C 1119.410156 1860.835938 1117.671875 1739.71875 1118.828125 1618.78125 C 1121.238281 1376.558594 1134.988281 1134.5 1132.488281 892.191406 C 1131.160156 758.261719 1124.660156 624.230469 1108.671875 491.128906 Z M 954.488281 527.28125 C 988.054688 491.710938 1038.039062 488.039062 1085.429688 489.878906 C 1114.410156 730.429688 1112 973.148438 1105.511719 1214.878906 C 1099.011719 1458.191406 1088.429688 1701.820312 1102.011719 1945.046875 C 1109.589844 2079.148438 1124.238281 2212.421875 1146.148438 2344.949219 L 1086.679688 2345.195312 C 1102.839844 2297.136719 1089.601562 2246.574219 1075.601562 2198.847656 C 1059.191406 2143.121094 1047.78125 2087.230469 1045.109375 2029.089844 C 1042.359375 1969.199219 1048.28125 1910.144531 1055.859375 1850.921875 C 1063.519531 1790.949219 1067.519531 1730.730469 1067.941406 1670.25 C 1068.941406 1547.980469 1069.109375 1425.699219 1069.519531 1303.5 C 1069.941406 1182.058594 1066.359375 1061.53125 1041.621094 942.261719 C 1017.460938 825.390625 980.730469 711.28125 947.242188 596.828125 L 934.832031 554.601562 C 940.164062 544.691406 946.742188 535.519531 954.488281 527.28125 Z M 950.742188 1930.96875 C 943.660156 1861.753906 941.246094 1791.871094 945.828125 1722.308594 C 950.410156 1651.761719 963.738281 1582.128906 971.480469 1511.828125 C 979.230469 1441.109375 978.730469 1369.96875 975.976562 1298.921875 C 973.3125 1227.871094 970.484375 1156.910156 965.152344 1086.109375 C 959.738281 1015.96875 950.324219 946.5 937.5 877.371094 C 924.835938 809.230469 911.261719 740.761719 911.175781 671.128906 C 911.089844 644.558594 913.339844 615.898438 921.003906 589.25 C 951.65625 692.789062 983.890625 796.148438 1008.878906 901.191406 C 1022.539062 958.738281 1033.289062 1016.800781 1038.949219 1075.609375 C 1044.78125 1135.5 1046.199219 1195.640625 1046.441406 1255.691406 C 1046.859375 1376.800781 1045.621094 1497.828125 1045.03125 1618.949219 C 1044.78125 1678.839844 1045.03125 1738.890625 1039.03125 1798.53125 C 1033.039062 1857.417969 1022.960938 1915.640625 1021.460938 1974.863281 C 1020.039062 2032.253906 1024.789062 2089.980469 1037.289062 2146.035156 C 1049.109375 2198.933594 1074.351562 2251.992188 1071.179688 2307.128906 C 1070.441406 2320.371094 1067.441406 2333.035156 1062.109375 2345.28125 L 1031.371094 2345.359375 C 1031.289062 2345.027344 1031.210938 2344.609375 1031.121094 2344.277344 C 998.222656 2207.839844 965.066406 2070.820312 950.742188 1930.96875 Z M 1328.398438 1853.757812 C 1313.070312 1989.023438 1307.910156 2126.210938 1328.488281 2261.230469 C 1332.738281 2289.140625 1338.140625 2316.792969 1344.640625 2344.277344 L 1308.738281 2344.445312 C 1303.238281 2245.824219 1297.578125 2146.871094 1278.339844 2049.832031 C 1268.929688 2002.269531 1253.441406 1955.710938 1257.191406 1906.730469 C 1260.851562 1859.25 1277.589844 1813.941406 1287.75 1767.710938 C 1308.738281 1671.589844 1304.160156 1572.550781 1318.070312 1475.511719 C 1331.308594 1382.890625 1366.96875 1295.851562 1385.789062 1204.46875 C 1394.871094 1160.320312 1398.449219 1115.679688 1396.53125 1070.691406 C 1395.039062 1034.378906 1390.960938 993.148438 1407.28125 959.328125 C 1408.78125 956.25 1410.359375 953.25 1412.199219 950.421875 C 1417.03125 993.398438 1419.441406 1036.800781 1419.941406 1080.03125 C 1421.359375 1203.128906 1408.199219 1325.988281 1389.789062 1447.519531 C 1369.300781 1582.960938 1343.808594 1717.648438 1328.398438 1853.757812 Z M 1923.210938 1197.300781 C 1921.960938 1213.800781 1919.050781 1229.878906 1914.628906 1246.949219 C 1910.050781 1264.609375 1904.050781 1281.929688 1897.390625 1298.921875 C 1884.230469 1332.660156 1867.570312 1366.058594 1852.75 1399.800781 C 1824.761719 1463.429688 1805.601562 1530.238281 1779.609375 1594.621094 C 1778.03125 1598.460938 1776.449219 1602.289062 1774.859375 1606.121094 C 1774.449219 1607.199219 1774.03125 1608.109375 1773.121094 1610.199219 C 1772.199219 1612.28125 1771.28125 1614.359375 1770.371094 1616.441406 C 1766.949219 1624.191406 1763.371094 1631.769531 1759.621094 1639.351562 C 1752.210938 1654.511719 1743.960938 1669.25 1734.960938 1683.5 C 1730.378906 1690.660156 1725.640625 1697.660156 1720.640625 1704.488281 C 1716.140625 1710.570312 1711.890625 1716.148438 1705.730469 1722.148438 C 1704.308594 1723.480469 1702.808594 1724.820312 1701.230469 1726.148438 C 1700.808594 1726.558594 1700.308594 1726.890625 1699.820312 1727.308594 C 1699.730469 1727.308594 1697.820312 1728.730469 1697.898438 1728.640625 C 1694.820312 1730.730469 1691.570312 1732.46875 1688.070312 1733.808594 C 1679.328125 1736.980469 1673.160156 1737.558594 1664.328125 1737.890625 C 1645 1738.71875 1625.519531 1738.058594 1606.191406 1738.058594 L 1600.941406 1738.058594 C 1618.851562 1732.558594 1636.101562 1724.730469 1651.25 1713.820312 C 1676.160156 1695.910156 1693.980469 1671.171875 1707.398438 1643.929688 C 1721.46875 1615.449219 1731.96875 1585.210938 1742.878906 1555.390625 C 1754.460938 1523.660156 1765.539062 1491.671875 1776.121094 1459.519531 C 1797.191406 1395.289062 1816.011719 1330.328125 1832.671875 1264.78125 C 1849.328125 1199.140625 1863.738281 1133.089844 1875.898438 1066.609375 C 1876.398438 1064.121094 1876.820312 1061.53125 1877.320312 1058.949219 C 1879.648438 1061.109375 1881.898438 1063.28125 1884.058594 1065.621094 C 1886.480469 1068.109375 1888.730469 1070.609375 1890.890625 1073.199219 C 1891.46875 1073.949219 1892.058594 1074.609375 1892.558594 1075.28125 L 1892.890625 1075.691406 C 1892.96875 1075.691406 1892.96875 1075.78125 1893.140625 1075.941406 C 1894.308594 1077.519531 1895.480469 1079.109375 1896.558594 1080.691406 C 1900.890625 1086.859375 1904.640625 1093.269531 1907.890625 1100.101562 C 1922.128906 1129.671875 1925.878906 1163.570312 1923.210938 1197.300781 "/>
</svg>
