<?xml version="1.0" encoding="UTF-8"?>
<svg xmlns="http://www.w3.org/2000/svg" xmlns:xlink="http://www.w3.org/1999/xlink" width="2835" height="2835" viewBox="723.47 514.92 1387.71 1805.52">
<path fill-rule="nonzero" fill="black" fill-opacity="0.1" d="M 1166.769531 1366.058594 C 1168.089844 1366.128906 1169.339844 1365.910156 1170.519531 1365.398438 C 1170.671875 1375.839844 1170.671875 1386.210938 1170.589844 1396.578125 C 1170.21875 1466.238281 1161.25 1534.421875 1151.691406 1603.28125 C 1142.28125 1670.429688 1136.609375 1737.441406 1138.371094 1805.261719 C 1141.828125 1941.039062 1168.308594 2075.058594 1198.910156 2206.941406 C 1206.039062 2237.617188 1213.480469 2268.285156 1220.828125 2298.890625 C 1209.058594 2301.167969 1209.871094 2320.511719 1223.109375 2320.4375 L 1554.191406 2319.335938 C 1561.46875 2319.335938 1566.46875 2312.421875 1564.78125 2305.507812 C 1532.121094 2176.785156 1528.808594 2043.28125 1539.109375 1911.398438 C 1543.449219 1855.054688 1550.210938 1798.929688 1558.160156 1743.03125 C 1559.191406 1743.328125 1560.289062 1743.46875 1561.390625 1743.46875 L 1793.089844 1743.691406 C 1811.328125 1743.691406 1829.941406 1744.648438 1848.179688 1743.328125 C 1857.160156 1742.660156 1866.128906 1741.269531 1874.449219 1737.808594 C 1882.980469 1734.28125 1890.550781 1729.351562 1897.171875 1722.949219 C 1909.011719 1711.769531 1918.429688 1697.648438 1927.261719 1684.039062 C 1936.160156 1670.289062 1944.25 1656.011719 1951.53125 1641.300781 C 1981.101562 1582.089844 1999.410156 1518.390625 2022.660156 1456.609375 C 2034.800781 1424.308594 2048.921875 1393.859375 2063.339844 1362.160156 C 2078.191406 1329.429688 2092.679688 1296.25 2101.730469 1261.390625 C 2118.058594 1197.839844 2116.441406 1123.691406 2070.910156 1072.058594 C 2051.859375 1050.429688 2025.671875 1033.660156 1997.359375 1027.410156 C 1982.5 1024.101562 1967.570312 1023.808594 1952.628906 1026.601562 C 1937.628906 1029.320312 1923.871094 1034.910156 1911.148438 1043.371094 C 1885.769531 1060.140625 1866.5 1085.300781 1854.511719 1112.960938 C 1839.949219 1146.351562 1834.210938 1182.019531 1829.5 1217.839844 C 1819.570312 1293.53125 1810.160156 1369.21875 1800.519531 1444.910156 L 1793.089844 1502.570312 C 1790.878906 1519.859375 1789.488281 1533.101562 1786.398438 1550.019531 C 1785 1557.808594 1783.308594 1565.691406 1781.25 1573.339844 C 1780.21875 1576.941406 1779.191406 1580.550781 1777.941406 1584.078125 C 1777.351562 1585.839844 1776.761719 1587.601562 1776.101562 1589.371094 C 1775.730469 1590.261719 1775.441406 1591.058594 1775.070312 1591.941406 C 1774.988281 1592.238281 1774.039062 1594.371094 1774.039062 1594.371094 C 1771.019531 1601.429688 1767.351562 1608.128906 1763.078125 1614.449219 C 1762.050781 1615.929688 1761.019531 1617.398438 1759.921875 1618.789062 C 1759.921875 1618.789062 1758.148438 1621 1757.859375 1621.300781 C 1755.648438 1623.871094 1753.371094 1626.300781 1751.019531 1628.648438 C 1748.738281 1630.859375 1746.460938 1632.988281 1744.03125 1634.980469 C 1743.371094 1635.488281 1742.78125 1635.929688 1742.191406 1636.449219 L 1741.828125 1636.671875 C 1740.351562 1637.769531 1738.808594 1638.871094 1737.339844 1639.898438 C 1731.890625 1643.511719 1726.300781 1646.601562 1720.351562 1649.320312 C 1719.691406 1649.609375 1718.949219 1649.910156 1718.289062 1650.269531 L 1718.140625 1650.351562 L 1717.839844 1650.421875 C 1716.449219 1651.011719 1714.980469 1651.601562 1713.5 1652.121094 C 1710.339844 1653.289062 1707.03125 1654.390625 1703.71875 1655.351562 C 1697.390625 1657.191406 1691.070312 1658.660156 1684.601562 1659.761719 L 1682.679688 1660.058594 C 1679.160156 1660.058594 1675.621094 1660.210938 1672.089844 1660.5 C 1667.238281 1660.871094 1662.449219 1661.53125 1657.75 1662.488281 C 1653.710938 1662.710938 1649.589844 1662.78125 1645.539062 1662.78125 C 1631.269531 1662.78125 1617.070312 1662.039062 1602.878906 1660.578125 C 1599.640625 1660.210938 1596.480469 1659.910156 1593.238281 1659.46875 L 1585.738281 1658.589844 L 1583.96875 1658.371094 L 1582.648438 1658.148438 L 1580.148438 1657.851562 L 1575.21875 1657.121094 C 1573.898438 1656.898438 1572.570312 1656.671875 1571.320312 1656.53125 C 1578.898438 1608.648438 1586.921875 1560.828125 1594.640625 1513.019531 C 1613.691406 1394.371094 1630.019531 1275.070312 1633.109375 1154.808594 C 1636.199219 1037.851562 1626.78125 919.210938 1593.609375 806.519531 C 1577.28125 751.058594 1555.140625 697.140625 1526.820312 646.609375 C 1498.5 596.160156 1462.898438 549.449219 1405.96875 530.25 C 1377.871094 520.761719 1347.941406 517.890625 1318.511719 516.269531 C 1288.871094 514.730469 1258.789062 513.480469 1229.429688 518.550781 C 1202.371094 523.191406 1176.839844 534.730469 1157.351562 554.148438 C 1140.21875 571.289062 1128.519531 593.070312 1120.71875 615.789062 C 1102.328125 669.929688 1105.640625 729.808594 1112.410156 785.558594 C 1120.5 852.640625 1136.019531 918.46875 1145.878906 985.191406 C 1155.808594 1053.230469 1160.441406 1122 1163.820312 1190.628906 C 1165.078125 1215.339844 1166.328125 1240.128906 1167.429688 1264.921875 C 1137.269531 1265.730469 1106.96875 1266.390625 1077.03125 1262.78125 C 1076 1262.640625 1075.039062 1262.570312 1074.089844 1262.421875 L 1073.648438 1262.351562 C 1071.730469 1262.050781 1069.820312 1261.75 1067.910156 1261.460938 C 1063.941406 1260.800781 1059.960938 1260.058594 1055.988281 1259.261719 C 1049.519531 1257.929688 1043.121094 1256.320312 1036.800781 1254.398438 C 1030.769531 1252.558594 1024.878906 1250.429688 1019 1248.070312 L 1018.628906 1247.929688 L 1018.480469 1247.859375 C 1017.671875 1247.488281 1016.859375 1247.191406 1016.121094 1246.820312 C 1014.800781 1246.238281 1013.480469 1245.648438 1012.230469 1244.980469 C 1009.289062 1243.589844 1006.339844 1242.121094 1003.46875 1240.570312 C 997.8125 1237.558594 992.367188 1234.171875 987.144531 1230.5 C 985.96875 1229.691406 984.867188 1228.878906 983.6875 1227.988281 L 982.4375 1227.039062 L 981.921875 1226.601562 C 979.273438 1224.53125 976.699219 1222.328125 974.273438 1219.980469 C 969.714844 1215.789062 965.449219 1211.300781 961.546875 1206.511719 L 960.960938 1205.710938 L 960.222656 1204.679688 C 959.269531 1203.429688 958.386719 1202.171875 957.5 1200.929688 C 955.589844 1198.128906 953.753906 1195.191406 952.0625 1192.25 C 950.4375 1189.378906 948.894531 1186.429688 947.496094 1183.421875 C 946.984375 1182.390625 946.542969 1181.359375 946.03125 1180.328125 C 946.03125 1180.179688 945.4375 1178.859375 945.367188 1178.640625 C 945 1177.828125 944.707031 1176.949219 944.339844 1176.140625 C 942.054688 1169.960938 940.066406 1163.628906 938.523438 1157.230469 C 936.90625 1150.761719 935.660156 1144.210938 934.699219 1137.589844 C 934.699219 1137.449219 934.628906 1137.011719 934.554688 1136.558594 C 934.40625 1135.761719 934.328125 1134.949219 934.261719 1134.140625 C 934.035156 1132.671875 933.890625 1131.121094 933.742188 1129.578125 C 933.375 1126.050781 933.007812 1122.519531 932.785156 1119.058594 C 930.726562 1090 931.832031 1060.730469 931.980469 1031.601562 C 932.199219 999.238281 932.492188 966.871094 932.714844 934.511719 C 932.863281 907.511719 934.1875 880 928.449219 853.378906 C 923.078125 828.371094 909.324219 804.460938 885.933594 792.25 C 863.867188 780.710938 836.945312 779.53125 813.410156 787.109375 C 787.886719 795.339844 767.285156 813.578125 752.871094 835.800781 C 719.988281 886.328125 723.003906 948.628906 724.035156 1006.300781 C 724.996094 1056.898438 725.289062 1107.808594 734.113281 1157.75 C 742.648438 1206.300781 760.886719 1253.890625 795.386719 1290.078125 C 832.015625 1328.621094 883.578125 1349.578125 935.214844 1359 C 996.269531 1370.101562 1058.351562 1365.910156 1119.988281 1365.398438 C 1135.578125 1365.25 1151.171875 1365.398438 1166.769531 1366.058594 Z M 2051.640625 1083.390625 C 2053.851562 1085.738281 2056.050781 1088.171875 2058.109375 1090.589844 C 2058.628906 1091.25 2059.140625 1091.910156 2059.730469 1092.578125 L 2060.019531 1092.941406 C 2060.019531 1093.019531 2060.101562 1093.089844 2060.171875 1093.171875 C 2061.28125 1094.710938 2062.378906 1096.179688 2063.480469 1097.730469 C 2067.53125 1103.539062 2071.128906 1109.71875 2074.21875 1116.121094 C 2087.679688 1144.210938 2091.210938 1176.359375 2088.710938 1208.429688 C 2087.460938 1224.019531 2084.738281 1239.320312 2080.539062 1255.578125 C 2076.210938 1272.351562 2070.539062 1288.828125 2064.21875 1304.929688 C 2051.710938 1336.929688 2035.96875 1368.628906 2021.851562 1400.699219 C 1995.371094 1461.089844 1977.199219 1524.570312 1952.558594 1585.691406 C 1951.089844 1589.371094 1949.621094 1592.96875 1948.070312 1596.578125 C 1947.628906 1597.679688 1947.261719 1598.488281 1946.460938 1600.480469 C 1945.570312 1602.460938 1944.691406 1604.449219 1943.800781 1606.441406 C 1940.570312 1613.71875 1937.191406 1621 1933.660156 1628.210938 C 1926.601562 1642.550781 1918.800781 1656.53125 1910.269531 1670.058594 C 1905.929688 1676.828125 1901.359375 1683.519531 1896.660156 1690 C 1892.390625 1695.800781 1888.351562 1701.101562 1882.460938 1706.769531 C 1881.140625 1708.089844 1879.738281 1709.339844 1878.269531 1710.589844 C 1877.828125 1710.960938 1877.390625 1711.328125 1876.941406 1711.691406 C 1876.800781 1711.691406 1875.03125 1713.019531 1875.03125 1712.941406 C 1872.160156 1714.929688 1869.078125 1716.550781 1865.761719 1717.878906 C 1857.53125 1720.820312 1851.640625 1721.398438 1843.261719 1721.769531 C 1824.941406 1722.511719 1806.480469 1721.921875 1788.160156 1721.921875 L 1783.160156 1721.921875 C 1800.148438 1716.699219 1816.480469 1709.269531 1830.828125 1698.898438 C 1854.441406 1681.910156 1871.429688 1658.371094 1884.160156 1632.46875 C 1897.390625 1605.410156 1907.398438 1576.71875 1917.691406 1548.46875 C 1928.730469 1518.320312 1939.25 1487.941406 1949.25 1457.410156 C 1969.179688 1396.359375 1987.058594 1334.71875 2002.871094 1272.488281 C 2018.691406 1210.191406 2032.289062 1147.449219 2043.839844 1084.339844 C 2044.28125 1081.910156 2044.71875 1079.488281 2045.171875 1077.058594 C 2047.371094 1079.121094 2049.578125 1081.179688 2051.640625 1083.390625 Z M 1893.789062 1089.050781 C 1893.929688 1088.828125 1893.859375 1088.898438 1893.789062 1089.050781 Z M 1787.5 1616.441406 C 1803.238281 1588.199219 1808.171875 1555.761719 1812.289062 1524.128906 C 1822 1449.46875 1831.339844 1374.660156 1840.898438 1299.929688 C 1845.609375 1263.671875 1849.429688 1226.960938 1855.25 1191.878906 C 1858.039062 1174.808594 1861.648438 1157.890625 1866.941406 1141.421875 C 1871.789062 1126.640625 1877.460938 1113.621094 1885.988281 1100.300781 C 1887.761719 1097.429688 1889.671875 1094.710938 1891.578125 1091.988281 C 1892.101562 1091.25 1892.609375 1090.589844 1893.199219 1089.859375 L 1893.5 1089.421875 C 1894.75 1087.871094 1896.070312 1086.25 1897.390625 1084.710938 C 1902.179688 1079.121094 1907.320312 1073.96875 1912.910156 1069.191406 C 1913.871094 1068.378906 1914.898438 1067.488281 1915.929688 1066.691406 C 1917.839844 1117.070312 1916.738281 1167.460938 1912.398438 1217.699219 C 1911.371094 1230.351562 1910.039062 1243 1908.578125 1255.578125 C 1907.910156 1261.898438 1907.101562 1268.230469 1906.289062 1274.480469 L 1905.851562 1277.71875 L 1905.269531 1282.128906 C 1904.75 1285.511719 1904.308594 1288.828125 1903.789062 1292.140625 C 1900.039062 1317.441406 1895.480469 1342.589844 1890.109375 1367.679688 C 1879.519531 1417.621094 1865.839844 1466.679688 1849.070312 1514.929688 C 1840.679688 1539.128906 1831.558594 1563.039062 1821.699219 1586.648438 C 1821.121094 1587.898438 1820.601562 1589.148438 1820.089844 1590.398438 L 1819.71875 1591.28125 C 1819.429688 1591.941406 1819.128906 1592.609375 1818.839844 1593.339844 C 1817.511719 1596.429688 1816.191406 1599.519531 1814.859375 1602.609375 C 1812.511719 1607.910156 1810.160156 1613.199219 1807.660156 1618.421875 C 1805.300781 1623.359375 1802.800781 1628.210938 1799.929688 1632.921875 C 1798.53125 1635.269531 1797.070312 1637.550781 1795.519531 1639.761719 C 1795.148438 1640.269531 1794.78125 1640.789062 1794.339844 1641.300781 C 1794.269531 1641.449219 1793.898438 1641.960938 1793.679688 1642.179688 L 1793.160156 1642.851562 C 1792.648438 1643.441406 1792.128906 1644.101562 1791.621094 1644.691406 C 1789.851562 1646.671875 1787.941406 1648.578125 1785.960938 1650.351562 C 1785.519531 1650.789062 1785 1651.230469 1784.558594 1651.601562 L 1784.039062 1652.039062 C 1783.679688 1652.328125 1782.570312 1653.148438 1782.570312 1653.148438 C 1781.988281 1653.578125 1781.328125 1654.03125 1780.589844 1654.46875 C 1778.53125 1655.789062 1776.320312 1657.039062 1774.109375 1658.148438 C 1773.449219 1658.371094 1772.859375 1658.660156 1772.28125 1658.949219 L 1772.050781 1659.03125 C 1770.730469 1659.46875 1769.480469 1659.980469 1768.160156 1660.351562 C 1765.730469 1661.160156 1763.230469 1661.820312 1760.648438 1662.339844 C 1759.480469 1662.558594 1758.230469 1662.710938 1757.050781 1662.929688 L 1756.679688 1663 C 1756.089844 1663.070312 1755.511719 1663.148438 1754.910156 1663.21875 C 1749.910156 1663.660156 1744.839844 1663.808594 1739.839844 1663.738281 C 1759.621094 1652.558594 1776.25 1636.738281 1787.5 1616.441406 Z M 1756.609375 1663 C 1756.089844 1663 1755.578125 1663.070312 1756.609375 1663 Z M 1742.410156 1636.230469 C 1742.710938 1636.011719 1742.628906 1636.078125 1742.410156 1636.230469 Z M 1643.480469 1684.628906 C 1647.230469 1684.628906 1650.980469 1684.628906 1654.738281 1684.480469 C 1656.429688 1684.851562 1658.121094 1684.769531 1659.808594 1684.398438 L 1660.398438 1684.261719 C 1668.421875 1683.820312 1676.359375 1683.078125 1684.300781 1681.910156 C 1686.730469 1681.910156 1689.078125 1681.980469 1691.441406 1682.121094 C 1702.839844 1682.570312 1714.089844 1683.890625 1725.421875 1684.769531 C 1748.148438 1686.539062 1772.421875 1685.878906 1792.058594 1673 C 1812.289062 1659.761719 1823.03125 1637.988281 1832.441406 1616.660156 C 1843.179688 1592.238281 1853.261719 1567.449219 1862.53125 1542.371094 C 1880.398438 1493.75 1895.109375 1444.179688 1906.808594 1393.710938 C 1918.5 1342.589844 1927.039062 1291.03125 1932.410156 1238.878906 C 1937.699219 1187.171875 1939.691406 1135.320312 1938.429688 1083.390625 C 1938.289062 1077.058594 1938.070312 1070.660156 1937.851562 1064.328125 C 1937.628906 1060.800781 1936.230469 1057.941406 1933.511719 1055.660156 C 1934.828125 1054.988281 1936.230469 1054.328125 1937.550781 1053.738281 L 1939.171875 1053.011719 L 1940.640625 1052.421875 C 1942.628906 1051.679688 1944.539062 1051.019531 1946.53125 1050.359375 C 1949.691406 1049.398438 1952.78125 1048.589844 1956.019531 1047.929688 C 1957.628906 1047.558594 1959.328125 1047.351562 1960.941406 1047.050781 L 1961.089844 1047.050781 L 1961.539062 1046.980469 C 1962.488281 1046.898438 1963.449219 1046.828125 1964.480469 1046.679688 C 1967.789062 1046.460938 1971.019531 1046.378906 1974.328125 1046.460938 C 1976.019531 1046.460938 1977.640625 1046.53125 1979.261719 1046.679688 C 1980.140625 1046.75 1980.949219 1046.75 1981.761719 1046.898438 C 1982.128906 1046.898438 1983.96875 1047.121094 1984.109375 1047.121094 C 1990.359375 1048.078125 1996.550781 1049.550781 2002.5 1051.53125 C 2004.121094 1052.050781 2005.671875 1052.570312 2007.210938 1053.148438 C 2008.171875 1053.519531 2009.050781 1053.890625 2010.011719 1054.261719 C 2010.378906 1054.398438 2011.921875 1055.058594 2010.148438 1054.328125 C 2013.539062 1055.800781 2016.839844 1057.421875 2020.078125 1059.179688 C 2022 1060.210938 2023.839844 1061.238281 2025.671875 1062.351562 C 2015.011719 1122.441406 2002.5 1182.171875 1988.089844 1241.53125 C 1973.011719 1303.238281 1955.871094 1364.441406 1936.671875 1425.121094 C 1927.109375 1455.351562 1917.03125 1485.371094 1906.511719 1515.230469 C 1896.289062 1543.988281 1886.070312 1572.820312 1874.449219 1601.070312 C 1872.308594 1606.21875 1869.738281 1612.171875 1866.648438 1618.570312 C 1863.78125 1624.679688 1860.691406 1630.640625 1857.308594 1636.449219 C 1854 1642.261719 1850.320312 1647.921875 1846.421875 1653.359375 C 1845.910156 1654.101562 1845.390625 1654.761719 1844.800781 1655.5 L 1844.511719 1655.941406 L 1844.210938 1656.308594 C 1843.328125 1657.410156 1842.371094 1658.519531 1841.488281 1659.609375 C 1839.140625 1662.410156 1836.710938 1665.058594 1834.210938 1667.640625 C 1831.929688 1669.921875 1829.578125 1672.199219 1827.148438 1674.328125 C 1825.828125 1675.429688 1824.429688 1676.609375 1823.101562 1677.710938 L 1821.851562 1678.601562 C 1821.699219 1678.738281 1820.308594 1679.769531 1820.230469 1679.839844 C 1814.859375 1683.738281 1809.269531 1687.199219 1803.390625 1690.289062 C 1800.589844 1691.761719 1797.800781 1693.160156 1794.929688 1694.410156 C 1794.421875 1694.628906 1792.28125 1695.589844 1792.210938 1695.589844 C 1790.589844 1696.25 1788.96875 1696.910156 1787.359375 1697.5 C 1781.179688 1699.78125 1774.988281 1701.769531 1768.671875 1703.378906 C 1762.050781 1705.078125 1755.429688 1706.46875 1748.738281 1707.570312 C 1747.191406 1707.871094 1745.570312 1708.089844 1744.03125 1708.308594 C 1743.21875 1708.460938 1742.339844 1708.601562 1741.53125 1708.679688 L 1741.089844 1708.75 C 1737.480469 1709.191406 1733.949219 1709.558594 1730.351562 1709.929688 C 1716.148438 1711.03125 1701.960938 1711.480469 1687.691406 1711.109375 C 1654.738281 1710.519531 1621.78125 1707.5 1588.761719 1708.679688 C 1580.730469 1708.96875 1572.648438 1709.488281 1564.628906 1710.371094 C 1564.039062 1710.449219 1563.449219 1710.519531 1562.859375 1710.660156 C 1564.480469 1699.78125 1566.171875 1688.890625 1567.871094 1678.011719 C 1592.871094 1681.691406 1618.179688 1684.550781 1643.480469 1684.628906 Z M 1583.019531 1446.011719 C 1563.53125 1574.589844 1539.398438 1702.5 1524.761719 1831.738281 C 1510.269531 1960.238281 1505.339844 2090.429688 1524.828125 2218.710938 C 1528.878906 2245.191406 1534.03125 2271.453125 1540.210938 2297.566406 L 1506.148438 2297.710938 C 1500.929688 2204.074219 1495.558594 2110.074219 1477.320312 2017.90625 C 1468.421875 1972.816406 1453.710938 1928.609375 1457.308594 1882.121094 C 1460.769531 1837.035156 1476.648438 1794 1486.21875 1750.019531 C 1506.148438 1658.730469 1501.808594 1564.730469 1514.980469 1472.640625 C 1527.558594 1384.671875 1561.390625 1301.988281 1579.191406 1215.269531 C 1587.800781 1173.339844 1591.179688 1130.980469 1589.421875 1088.171875 C 1587.949219 1053.738281 1584.121094 1014.609375 1599.570312 982.46875 C 1600.960938 979.519531 1602.511719 976.730469 1604.199219 974.011719 C 1608.761719 1014.828125 1611.039062 1056.019531 1611.550781 1097.070312 C 1612.949219 1213.941406 1600.449219 1330.609375 1583.019531 1446.011719 Z M 1555.210938 760.398438 C 1577.210938 819.839844 1591.699219 881.550781 1600.449219 944.148438 C 1599.640625 944.660156 1598.898438 945.320312 1598.238281 946.058594 C 1572.058594 974.371094 1566.390625 1012.480469 1566.390625 1049.621094 C 1566.390625 1068.308594 1567.648438 1086.988281 1568.078125 1105.671875 C 1568.679688 1127.441406 1567.5 1149.070312 1564.699219 1170.621094 C 1553.230469 1259.03125 1517.921875 1342.300781 1500.269531 1429.460938 C 1481.589844 1521.628906 1486.148438 1616.21875 1471.648438 1708.898438 C 1464.519531 1754.5 1449.660156 1798.199219 1440.828125 1843.359375 C 1436.421875 1865.9375 1433.628906 1889.109375 1435.03125 1912.128906 C 1436.488281 1935.820312 1441.71875 1958.988281 1447.011719 1982.011719 C 1468.640625 2074.765625 1476.800781 2169.058594 1482.320312 2263.871094 C 1482.980469 2275.199219 1483.640625 2286.457031 1484.230469 2297.785156 L 1447.378906 2297.859375 C 1452.019531 2190.980469 1440.101562 2084.472656 1432.011719 1977.964844 C 1427.960938 1924.636719 1424.871094 1871.089844 1425.460938 1817.539062 C 1426.050781 1764.289062 1431.050781 1711.328125 1437.890625 1658.589844 C 1451.429688 1553.410156 1470.988281 1448.371094 1468.710938 1341.859375 C 1467.460938 1287.351562 1462.019531 1233 1464.449219 1178.421875 C 1466.949219 1124.058594 1474.230469 1069.921875 1480.261719 1015.859375 L 1518.289062 675.449219 C 1532.558594 703.03125 1544.691406 731.859375 1555.210938 760.398438 Z M 1327.710938 538.628906 C 1357.050781 540.621094 1387.359375 544.441406 1414.351562 556.878906 C 1439.800781 568.5 1460.480469 587.621094 1477.238281 609.691406 C 1485.699219 620.941406 1493.578125 632.558594 1500.929688 644.550781 C 1499.980469 646.03125 1499.460938 647.640625 1499.238281 649.410156 C 1487.03125 758.488281 1474.890625 867.570312 1462.679688 976.660156 C 1456.648438 1030.871094 1449.660156 1085.078125 1445.101562 1139.511719 C 1440.46875 1194.078125 1442.53125 1248 1445.25 1302.578125 C 1447.96875 1356.058594 1446.71875 1409.449219 1441.5 1462.710938 C 1436.351562 1515.671875 1428.328125 1568.191406 1420.980469 1620.851562 C 1413.769531 1673.371094 1407.070312 1726.039062 1404.640625 1778.921875 C 1402.148438 1832.46875 1403.910156 1886.019531 1407.371094 1939.496094 C 1415.019531 2058.875 1430.691406 2178.105469 1425.460938 2297.933594 L 1374.050781 2298.078125 C 1355.140625 2183.84375 1341.828125 2068.878906 1334.179688 1953.175781 C 1326.679688 1838.503906 1325.058594 1723.539062 1326.160156 1608.648438 C 1328.371094 1378.628906 1341.460938 1148.78125 1339.109375 918.699219 C 1337.78125 791.511719 1331.679688 664.261719 1316.460938 537.898438 Z M 1170.300781 572.25 C 1202.148438 538.410156 1249.589844 534.949219 1294.460938 536.71875 C 1321.96875 765.109375 1319.691406 995.558594 1313.511719 1225.128906 C 1307.328125 1456.160156 1297.328125 1687.488281 1310.199219 1918.460938 C 1317.339844 2045.78125 1331.308594 2172.371094 1351.980469 2298.226562 L 1295.640625 2298.371094 C 1310.941406 2252.765625 1298.429688 2204.738281 1285.121094 2159.425781 C 1269.601562 2106.464844 1258.789062 2053.503906 1256.28125 1998.195312 C 1253.640625 1941.40625 1259.21875 1885.355469 1266.441406 1829.089844 C 1273.789062 1771.941406 1277.320312 1715.148438 1277.839844 1657.488281 C 1278.871094 1541.410156 1279.011719 1425.339844 1279.378906 1309.269531 C 1279.820312 1193.941406 1276.359375 1079.558594 1252.96875 966.210938 C 1230.03125 855.289062 1195.238281 746.941406 1163.460938 638.300781 L 1151.691406 598.140625 C 1156.761719 588.730469 1163.019531 580.050781 1170.300781 572.25 Z M 1154.191406 904.570312 C 1142.28125 839.921875 1129.328125 774.890625 1129.261719 708.839844 C 1129.179688 683.609375 1131.308594 656.398438 1138.519531 631.019531 C 1167.648438 729.359375 1198.179688 827.558594 1221.859375 927.300781 C 1234.800781 981.878906 1245.03125 1037.039062 1250.398438 1092.941406 C 1255.910156 1149.730469 1257.308594 1206.808594 1257.53125 1263.890625 C 1257.898438 1378.859375 1256.730469 1493.820312 1256.210938 1608.789062 C 1255.910156 1665.648438 1256.210938 1722.730469 1250.480469 1779.371094 C 1244.808594 1835.191406 1235.25 1890.507812 1233.851562 1946.777344 C 1232.449219 2001.210938 1237.011719 2056.007812 1248.851562 2109.261719 C 1260.039062 2159.5 1284.011719 2209.882812 1280.929688 2262.257812 C 1280.269531 2274.835938 1277.390625 2286.898438 1272.390625 2298.519531 L 1243.191406 2298.59375 C 1243.191406 2298.226562 1243.121094 2297.859375 1243.050781 2297.566406 C 1211.78125 2168.03125 1180.378906 2037.914062 1166.769531 1905.144531 C 1160.070312 1839.3125 1157.789062 1773.039062 1162.128906 1706.988281 C 1166.46875 1639.980469 1179.050781 1573.851562 1186.410156 1507.140625 C 1193.839844 1439.910156 1193.238281 1372.460938 1190.75 1305.011719 C 1188.171875 1237.480469 1185.53125 1170.109375 1180.378906 1102.878906 C 1175.371094 1036.238281 1166.398438 970.328125 1154.191406 904.570312 Z M 849.523438 804.308594 C 851.140625 804.390625 852.609375 804.609375 854.15625 804.761719 C 854.378906 804.761719 854.601562 804.761719 854.820312 804.761719 C 855.40625 804.828125 856.070312 805.050781 856.585938 805.128906 C 859.085938 805.558594 861.589844 806.160156 864.085938 806.890625 C 865.265625 807.261719 866.515625 807.621094 867.6875 807.988281 C 868.425781 808.289062 869.160156 808.511719 869.824219 808.800781 L 870.777344 809.171875 C 873.058594 810.199219 875.34375 811.300781 877.546875 812.558594 C 878.652344 813.21875 879.683594 813.878906 880.78125 814.609375 C 881.375 815.050781 882.035156 815.421875 882.625 815.871094 C 883.066406 816.230469 883.503906 816.53125 883.871094 816.820312 L 882.917969 816.011719 C 885.195312 817.109375 887.476562 819.980469 889.242188 821.820312 C 890.199219 822.78125 891.085938 823.808594 891.964844 824.839844 C 892.550781 825.429688 893.070312 826.011719 893.507812 826.671875 C 893.65625 826.820312 893.730469 826.96875 893.804688 827.039062 C 895.492188 829.46875 897.117188 831.898438 898.507812 834.46875 C 899.246094 835.71875 899.832031 836.828125 900.425781 838.078125 C 900.71875 838.671875 901.011719 839.261719 901.304688 839.839844 C 901.378906 839.988281 901.523438 840.359375 901.75 840.71875 C 904.320312 845.871094 905.71875 852.058594 906.96875 857.640625 C 907.628906 860.289062 908.148438 863.011719 908.585938 865.738281 C 908.734375 866.621094 908.878906 867.429688 908.953125 868.230469 C 908.953125 868.378906 909.027344 868.53125 909.105469 868.75 C 909.398438 870.371094 909.472656 872.058594 909.617188 873.679688 C 910.871094 885.738281 911.015625 897.800781 910.941406 909.941406 C 910.796875 941.789062 910.503906 973.640625 910.277344 1005.421875 C 910.058594 1035.429688 909.398438 1065.441406 909.910156 1095.449219 C 910.429688 1122.660156 912.5625 1150.539062 921.3125 1176.429688 C 929.847656 1201.878906 944.851562 1224.53125 965.816406 1241.53125 C 986.117188 1258.011719 1009.949219 1269.550781 1035.109375 1276.609375 C 1064.75 1285 1095.859375 1287.199219 1126.53125 1287.351562 C 1140.511719 1287.429688 1154.410156 1287.058594 1168.390625 1286.691406 C 1168.679688 1294.710938 1168.96875 1302.730469 1169.269531 1310.738281 C 1167.210938 1308.019531 1164.421875 1306.699219 1160.960938 1306.851562 C 1138.078125 1308.101562 1115.199219 1309.199219 1092.328125 1309.050781 C 1080.851562 1308.910156 1069.449219 1308.460938 1058.050781 1307.578125 C 1052.390625 1307.140625 1046.730469 1306.550781 1041.140625 1305.820312 C 1040.988281 1305.820312 1040.769531 1305.820312 1040.621094 1305.820312 C 1040.179688 1305.738281 1039.738281 1305.671875 1039.300781 1305.589844 C 1037.820312 1305.371094 1036.429688 1305.160156 1035.03125 1304.929688 C 1032.160156 1304.488281 1029.289062 1303.980469 1026.5 1303.460938 C 1015.539062 1301.480469 1004.71875 1298.679688 994.058594 1295.21875 C 991.703125 1294.421875 989.277344 1293.53125 986.851562 1292.648438 C 985.527344 1292.140625 984.203125 1291.691406 982.808594 1291.109375 L 981.257812 1290.511719 L 980.085938 1290.078125 C 975.007812 1287.941406 970.007812 1285.511719 965.148438 1282.871094 C 960.222656 1280.289062 955.371094 1277.429688 950.664062 1274.339844 C 948.160156 1272.640625 945.660156 1270.949219 943.15625 1269.179688 C 942.203125 1268.519531 941.246094 1267.789062 940.21875 1267.050781 C 939.554688 1266.539062 938.820312 1265.949219 938.082031 1265.429688 L 937.789062 1265.210938 C 937.714844 1265.140625 937.570312 1265.058594 937.421875 1264.921875 C 928.152344 1257.488281 919.257812 1249.691406 910.722656 1241.460938 C 894.394531 1225.789062 877.992188 1209.679688 863.425781 1192.320312 C 861.808594 1190.410156 860.1875 1188.488281 858.714844 1186.511719 L 858.421875 1186.21875 C 857.980469 1185.628906 857.617188 1185.109375 857.175781 1184.519531 C 856.21875 1183.269531 855.332031 1182.019531 854.378906 1180.699219 C 851.21875 1176.210938 848.269531 1171.578125 845.554688 1166.800781 C 844.300781 1164.519531 843.050781 1162.089844 841.875 1159.738281 C 841.359375 1158.558594 840.847656 1157.460938 840.328125 1156.28125 L 840.253906 1156.210938 C 839.960938 1155.398438 839.664062 1154.578125 839.296875 1153.851562 C 837.238281 1148.410156 835.621094 1142.890625 834.519531 1137.230469 C 834.222656 1135.828125 833.929688 1134.429688 833.710938 1133.039062 C 833.558594 1132.21875 833.488281 1131.421875 833.339844 1130.679688 C 833.339844 1130.609375 833.339844 1130.53125 833.265625 1130.460938 C 833.265625 1130.390625 833.265625 1130.308594 833.265625 1130.238281 C 832.972656 1127.070312 832.605469 1123.839844 832.460938 1120.679688 C 832.09375 1114.570312 832.015625 1108.46875 832.09375 1102.359375 C 832.234375 1089.421875 832.828125 1076.46875 833.191406 1063.449219 C 834.078125 1036.898438 834.957031 1010.269531 835.84375 983.71875 L 840.988281 824.25 C 841.214844 817.78125 841.433594 811.230469 841.578125 804.761719 C 841.578125 804.609375 841.578125 804.390625 841.578125 804.238281 L 841.800781 804.238281 C 844.375 804.171875 846.945312 804.171875 849.523438 804.308594 Z M 976.625 1342.671875 C 970.375 1342.148438 964.125 1341.558594 957.945312 1340.679688 L 957.207031 1340.53125 L 955.003906 1340.238281 C 953.53125 1340.019531 952.0625 1339.800781 950.664062 1339.578125 C 947.128906 1339.070312 943.675781 1338.46875 940.144531 1337.808594 C 927.566406 1335.460938 915.136719 1332.441406 902.847656 1328.761719 C 896.820312 1326.929688 890.859375 1324.871094 884.976562 1322.589844 C 883.429688 1322 881.960938 1321.410156 880.488281 1320.820312 L 878.429688 1320.011719 L 878.136719 1319.871094 L 877.839844 1319.789062 C 874.898438 1318.46875 871.960938 1317.21875 869.089844 1315.820312 C 857.542969 1310.378906 846.585938 1304.050781 836.136719 1296.691406 C 834.957031 1295.878906 833.855469 1295 832.679688 1294.199219 C 832.09375 1293.75 831.429688 1293.308594 830.910156 1292.871094 L 830.769531 1292.71875 C 828.046875 1290.589844 825.398438 1288.378906 822.75 1286.109375 C 818.113281 1282.058594 813.703125 1277.71875 809.433594 1273.230469 C 807.449219 1271.101562 805.535156 1268.96875 803.699219 1266.761719 C 802.8125 1265.730469 801.933594 1264.699219 801.121094 1263.601562 C 800.609375 1263.011719 800.09375 1262.351562 799.578125 1261.691406 C 799.503906 1261.609375 799.429688 1261.539062 799.355469 1261.460938 L 799.285156 1261.320312 C 795.679688 1256.609375 792.300781 1251.75 789.132812 1246.75 C 785.96875 1241.75 783.101562 1236.601562 780.378906 1231.378906 C 779.132812 1228.949219 777.882812 1226.378906 776.628906 1223.871094 C 776.039062 1222.550781 775.453125 1221.160156 774.792969 1219.828125 C 774.574219 1219.308594 774.347656 1218.871094 774.203125 1218.359375 C 773.980469 1217.839844 772.363281 1214.53125 773.6875 1217.25 C 771.113281 1211.960938 769.273438 1206.21875 767.4375 1200.628906 C 765.523438 1195.109375 763.835938 1189.519531 762.285156 1183.859375 C 759.125 1172.308594 756.695312 1160.550781 754.710938 1148.78125 C 754.191406 1145.761719 753.679688 1142.671875 753.238281 1139.660156 C 753.019531 1138.261719 752.871094 1136.859375 752.652344 1135.53125 L 752.28125 1132.589844 C 751.472656 1126.410156 750.808594 1120.238281 750.222656 1114.058594 C 747.941406 1089.488281 747.132812 1064.699219 746.546875 1040.058594 C 745.957031 1012.109375 745.003906 984.160156 745.371094 956.28125 C 745.441406 948.699219 745.738281 941.128906 746.175781 933.550781 C 746.46875 929.871094 746.769531 926.199219 747.132812 922.519531 C 747.28125 920.828125 747.5 919.058594 747.722656 917.300781 C 747.722656 917.21875 747.941406 915.679688 747.941406 915.308594 L 748.3125 912.878906 C 750.222656 899.570312 753.53125 886.621094 758.09375 873.96875 C 758.609375 872.648438 759.125 871.320312 759.636719 870 C 759.933594 869.410156 760.15625 868.75 760.375 868.160156 L 760.742188 867.5 C 762.066406 864.488281 763.464844 861.539062 764.933594 858.601562 C 767.804688 853.089844 771.039062 847.78125 774.640625 842.640625 C 775.453125 841.53125 776.257812 840.359375 777.144531 839.261719 L 777.144531 839.179688 C 777.21875 839.179688 777.21875 839.179688 777.21875 839.109375 C 777.65625 838.589844 778.101562 838.011719 778.542969 837.488281 C 780.597656 834.988281 782.734375 832.558594 785.011719 830.28125 C 787.074219 828.148438 789.210938 826.160156 791.414062 824.179688 C 792.441406 823.289062 793.546875 822.410156 794.652344 821.53125 C 795.015625 821.238281 797.078125 819.320312 795.089844 821.160156 C 795.753906 820.570312 796.414062 820.058594 797.152344 819.609375 C 801.933594 816.230469 806.933594 813.289062 812.304688 810.859375 C 812.449219 810.789062 812.671875 810.710938 812.816406 810.640625 L 812.597656 810.710938 C 813.109375 810.5 813.554688 810.351562 814.070312 810.050781 C 815.464844 809.539062 817.011719 808.949219 818.480469 808.511719 C 818.847656 808.359375 819.144531 808.289062 819.511719 808.140625 C 817.820312 860.878906 816.128906 913.621094 814.433594 966.359375 C 813.554688 993.28125 812.671875 1020.199219 811.785156 1047.121094 L 810.464844 1087.941406 C 810.027344 1100.449219 809.65625 1113.019531 810.832031 1125.460938 C 811.9375 1138.328125 814.507812 1150.839844 819.441406 1162.828125 C 824 1173.710938 829.738281 1183.941406 836.726562 1193.5 C 850.554688 1212.550781 867.25 1229.171875 883.871094 1245.71875 C 901.230469 1263.078125 919.324219 1280 939.996094 1293.460938 C 959.636719 1306.191406 981.703125 1315.230469 1004.289062 1320.96875 C 1049.820312 1332.519531 1097.410156 1331.851562 1143.96875 1329.570312 C 1149.628906 1329.28125 1155.289062 1328.988281 1160.960938 1328.691406 C 1164.488281 1328.46875 1167.429688 1327 1169.710938 1324.351562 C 1169.929688 1331.191406 1170.078125 1338.039062 1170.21875 1344.871094 C 1169.121094 1344.5 1167.941406 1344.289062 1166.769531 1344.210938 C 1103.441406 1341.488281 1039.878906 1348.039062 976.625 1342.671875 "/>
</svg>
