<?xml version="1.0" encoding="UTF-8"?>
  <svg xmlns="http://www.w3.org/2000/svg" xmlns:xlink="http://www.w3.org/1999/xlink" width="2100" height="2300" viewBox="0 0 2100 2300">
  <path fill-rule="evenodd" fill="black" fill-opacity="0.7" d="M 1333.769531 632.78125 C 1228.480469 684.550781 1169.738281 855.578125 1162.390625 940.238281 C 1148.058594 1105.460938 937.664062 1249.488281 1177.25 1418.792969 C 1314.988281 1516.132812 1430.929688 1410.15625 1560.578125 1227.128906 C 1669.191406 1073.789062 1741.191406 1208.269531 1861.429688 1070.601562 C 1953.5 965.179688 1910.609375 825.871094 1874.621094 762.078125 C 1762.511719 563.429688 1547.800781 527.539062 1333.769531 632.78125 "/>
  <path fill-rule="evenodd" fill="black" fill-opacity="0.7" d="M 787.273438 1347.847656 C 823.355469 1269.410156 777.492188 1126.980469 804.289062 1077.621094 C 868.230469 959.789062 1126.589844 873.839844 958.332031 719.160156 C 904.042969 669.261719 824.730469 631.800781 751.148438 622.019531 C 679.667969 612.53125 614.796875 628.199219 557.824219 661.070312 C 366.25 771.628906 506.535156 922.839844 459.242188 1086.320312 C 434.265625 1172.648438 270.304688 1208.210938 311.230469 1316.988281 C 378.449219 1495.652344 695.523438 1547.3125 787.273438 1347.847656 "/>
  <path fill-rule="evenodd" fill="black" fill-opacity="0.7" d="M 413.976562 104.5 C 276.613281 -74.390625 -60.160156 -6.460938 -174.246094 178.78125 C -240.953125 287.101562 -304.035156 615.769531 -121.40625 658.800781 C 1.269531 687.699219 95.648438 526.808594 215.679688 489.25 C 516.199219 395.191406 760.035156 522.96875 766.425781 392 C 775.757812 200.648438 511.882812 232 413.976562 104.5 "/>
  <path fill-rule="evenodd" fill="black" fill-opacity="0.7" d="M 2713.980469 104.5 C 2576.621094 -74.390625 2239.839844 -6.460938 2125.75 178.78125 C 2059.039062 287.101562 1995.96875 615.769531 2178.589844 658.800781 C 2301.269531 687.699219 2395.648438 526.808594 2515.679688 489.25 C 2816.199219 395.191406 3060.039062 522.96875 3066.429688 392 C 3075.761719 200.648438 2811.878906 232 2713.980469 104.5 "/>
  <path fill-rule="evenodd" fill="black" fill-opacity="0.7" d="M -185.941406 1571.980469 C 2.53125 1565.59375 -44.257812 1703.648438 69.582031 1743.957031 C 80.289062 1747.75 98.613281 1753.398438 109.652344 1756.328125 C 212.234375 1783.546875 663.242188 1644.757812 611.851562 1875.457031 C 588.847656 1978.71875 502.550781 2072.65625 417.808594 2102.257812 C 304.191406 2141.949219 94.984375 2179.765625 -28.976562 2164.40625 C -169.871094 2146.949219 -141.144531 1986.625 -250.023438 1955.59375 C -419.132812 1907.398438 -457.386719 1581.183594 -185.941406 1571.980469 "/>
  <path fill-rule="evenodd" fill="black" fill-opacity="0.7" d="M 2114.058594 1571.980469 C 2302.53125 1565.59375 2255.738281 1703.648438 2369.578125 1743.957031 C 2380.289062 1747.75 2398.609375 1753.398438 2409.648438 1756.328125 C 2512.238281 1783.546875 2963.238281 1644.757812 2911.851562 1875.457031 C 2888.851562 1978.71875 2802.550781 2072.65625 2717.808594 2102.257812 C 2604.191406 2141.949219 2394.980469 2179.765625 2271.03125 2164.40625 C 2130.128906 2146.949219 2158.859375 1986.625 2049.980469 1955.59375 C 1880.871094 1907.398438 1842.609375 1581.183594 2114.058594 1571.980469 "/>
  <path fill-rule="evenodd" fill="black" fill-opacity="0.7" d="M 1310.300781 2088.335938 C 1776.761719 2317.875 1889.628906 1821.535156 1441.949219 1641.9375 C 1360.558594 1609.285156 1267.710938 1590.019531 1179.921875 1603.730469 C 1014.910156 1629.5 919.316406 1778.046875 837.519531 1903.058594 C 668.214844 2161.808594 850.679688 2223.289062 974.835938 2198.050781 C 1086.679688 2175.3125 1209.929688 2038.945312 1310.300781 2088.335938 "/>
  <path fill-rule="evenodd" fill="black" fill-opacity="0.7" d="M 1321.511719 26.800781 C 1223.878906 13.609375 1028.609375 -12.78125 1150 191.671875 C 1319.140625 476.53125 1725.808594 327.878906 1776.648438 288.980469 C 1925.949219 174.730469 1763.328125 84 1533.328125 63.890625 "/>
  <path fill-rule="evenodd" fill="black" fill-opacity="0.7" d="M 169.894531 776.128906 C 122.390625 774.019531 -12.203125 834.941406 -27.402344 842.871094 C -185.953125 925.570312 -321.503906 1137.820312 -185.480469 1300.753906 C -157.101562 1334.746094 -118.207031 1366.265625 -74.015625 1375.511719 C -42.691406 1382.0625 -10.296875 1378.855469 15.53125 1358.703125 C 77.070312 1310.695312 91.238281 1221.320312 127.402344 1155.539062 C 211.988281 1001.671875 313.644531 782.519531 169.894531 776.128906 "/>
  <path fill-rule="evenodd" fill="black" fill-opacity="0.7" d="M 2469.898438 776.128906 C 2422.390625 774.019531 2287.800781 834.941406 2272.601562 842.871094 C 2114.050781 925.570312 1978.5 1137.820312 2114.519531 1300.753906 C 2142.898438 1334.746094 2181.789062 1366.265625 2225.980469 1375.511719 C 2257.308594 1382.0625 2289.699219 1378.855469 2315.53125 1358.703125 C 2377.070312 1310.695312 2391.238281 1221.320312 2427.398438 1155.539062 C 2511.988281 1001.671875 2613.648438 782.519531 2469.898438 776.128906 "/>
</svg>
